<ttFont>
        <CharString name=".notdef">
          -1200 183 164 rmoveto
          -365 hlineto
          -27 0 -14 14 0 29 0 9 63 116 126 222 9 14 11 7 13 0 15 0 12 -7 8 -14 126 -222 63 -116 0 -9 0 -29 -14 -14 -26 0 rrcurveto
          -485 264 rmoveto
          -29 0 -14 13 0 26 rrcurveto
          537 vlineto
          0 27 14 13 29 0 14 0 11 -5 10 -11 122 -185 61 -97 0 -9 0 -9 -61 -98 -122 -186 -10 -11 -11 -5 -14 0 rrcurveto
          679 -421 rmoveto
          31 0 26 11 20 24 20 23 10 25 0 26 rrcurveto
          1237 vlineto
          0 30 -10 26 -20 22 -20 23 -26 11 -31 0 rrcurveto
          -756 hlineto
          -31 0 -25 -11 -20 -22 -20 -22 -10 -26 0 -31 rrcurveto
          -1237 vlineto
          0 -26 10 -25 20 -23 20 -24 25 -11 31 0 rrcurveto
          680 421 rmoveto
          -12 0 -11 5 -11 11 -121 186 -61 98 0 9 0 9 61 97 121 185 11 11 11 5 12 0 29 0 15 -13 0 -27 rrcurveto
          -537 vlineto
          0 -26 -15 -13 -29 0 rrcurveto
          -302 473 rmoveto
          -13 0 -11 6 -9 12 -126 224 -63 116 0 7 0 29 14 15 27 0 rrcurveto
          365 hlineto
          26 0 14 -15 0 -29 0 -7 -63 -116 -126 -224 -8 -12 -12 -6 -15 0 rrcurveto
          endchar
        </CharString>
        <CharString name="A">
          0 600 1127 rmoveto
          18 0 12 -9 6 -18 rrcurveto
          166 -539 rlineto
          1 -5 1 -4 0 -3 0 -9 -3 -9 -7 -7 -7 -8 -9 -4 -12 0 rrcurveto
          -332 hlineto
          -12 0 -9 4 -7 8 -7 7 -3 9 0 9 0 4 1 4 1 4 rrcurveto
          166 539 rlineto
          6 18 12 9 18 0 rrcurveto
          -231 -794 rmoveto
          462 hlineto
          22 0 15 -11 7 -21 rrcurveto
          85 -266 rlineto
          7 -20 11 -16 16 -11 16 -12 18 -6 21 0 26 0 22 9 18 19 17 19 9 21 0 24 0 9 -1 10 -3 9 rrcurveto
          -379 1220 rlineto
          -12 36 -20 29 -29 22 -29 22 -33 11 -35 0 -35 0 -32 -11 -29 -22 -29 -22 -21 -29 -12 -36 rrcurveto
          -379 -1220 rlineto
          -3 -9 -1 -10 0 -9 0 -24 9 -21 18 -19 17 -19 22 -9 26 0 21 0 18 6 16 12 16 11 11 16 7 20 rrcurveto
          85 266 rlineto
          7 21 15 11 22 0 rrcurveto
          endchar
        </CharString>
        <CharString name="B">
          0 637 hmoveto
          239 0 196 189 0 234 0 117 -47 98 -107 63 -6 3 -25 11 0 15 0 15 21 11 8 7 74 64 30 79 0 128 0 170 -165 196 -218 0 rrcurveto
          -353 hlineto
          -52 0 -42 -43 0 -51 rrcurveto
          -1212 vlineto
          0 -52 42 -42 52 0 rrcurveto
          354 814 rmoveto
          -225 hlineto
          -24 0 -18 18 0 24 rrcurveto
          321 vlineto
          0 24 18 18 24 0 rrcurveto
          225 hlineto
          110 0 92 -77 0 -109 0 -108 -96 -111 -106 0 rrcurveto
          -634 vmoveto
          -225 hlineto
          -24 0 -18 19 0 24 rrcurveto
          368 vlineto
          0 24 18 18 24 0 rrcurveto
          226 1 rlineto
          153 -4 101 -100 0 -106 0 -131 -113 -113 -142 0 rrcurveto
          endchar
        </CharString>
        <CharString name="C">
          0 736 -30 rmoveto
          88 0 81 13 76 26 45 15 23 29 0 42 0 35 -10 26 -20 17 -12 11 -17 5 -22 0 -8 0 -9 -2 -7 -4 -45 -23 -67 -11 -89 0 -116 2 -92 49 -70 94 -70 95 -35 135 0 175 rrcurveto
          0 179 38 137 77 94 76 94 89 48 103 3 104 0 68 -8 31 -17 10 -5 9 -3 7 0 18 0 16 6 13 12 20 18 10 22 0 28 0 82 -105 41 -208 0 -168 0 -135 -66 -102 -133 rrcurveto
          -97 -133 -50 -180 -4 -227 0 -210 50 -174 101 -138 102 -132 135 -67 168 0 rrcurveto
          endchar
        </CharString>
        <CharString name="D">
          0 445 180 rmoveto
          -32 hlineto
          -24 0 -19 19 0 24 rrcurveto
          954 vlineto
          0 24 19 18 24 0 154 0 130 -1 97 -97 86 -86 9 -168 0 -215 0 -336 -131 -136 -313 0 rrcurveto
          -180 vmoveto
          430 0 194 181 0 471 rrcurveto
          136 vlineto
          0 430 -194 182 -391 0 rrcurveto
          -200 hlineto
          -52 0 -42 -43 0 -51 rrcurveto
          -1212 vlineto
          0 -52 42 -42 52 0 rrcurveto
          endchar
        </CharString>
        <CharString name="E">
          0 968 hmoveto
          49 0 41 40 0 50 0 49 -41 41 -49 0 rrcurveto
          -525 hlineto
          -24 0 -19 19 0 23 rrcurveto
          346 vlineto
          0 23 19 19 24 0 rrcurveto
          468 hlineto
          50 0 40 41 0 49 0 50 -40 40 -50 0 rrcurveto
          -468 hlineto
          -24 0 -19 19 0 24 rrcurveto
          344 vlineto
          0 24 19 19 24 0 rrcurveto
          525 hlineto
          49 0 41 41 0 49 0 50 -41 40 -49 0 rrcurveto
          -654 hlineto
          -52 0 -42 -42 0 -51 rrcurveto
          -1214 vlineto
          0 -51 42 -42 52 0 rrcurveto
          endchar
        </CharString>
        <CharString name="F">
          0 310 -30 rmoveto
          50 0 40 41 0 49 rrcurveto
          508 vlineto
          0 23 19 19 24 0 rrcurveto
          460 hlineto
          50 0 40 41 0 49 0 50 -40 40 -50 0 rrcurveto
          -460 hlineto
          -24 0 -19 19 0 24 rrcurveto
          344 vlineto
          0 24 19 19 24 0 rrcurveto
          537 hlineto
          49 0 41 41 0 49 0 50 -41 40 -49 0 rrcurveto
          -666 hlineto
          -51 0 -43 -42 0 -51 rrcurveto
          -1247 vlineto
          0 -49 41 -41 49 0 rrcurveto
          endchar
        </CharString>
        <CharString name="G">
          0 606 -30 rmoveto
          146 0 122 55 99 110 24 28 12 34 0 40 rrcurveto
          448 vlineto
          0 14 -5 11 -8 9 -8 9 -10 5 -13 0 rrcurveto
          -319 hlineto
          -21 0 -20 -8 -17 -14 -17 -15 -9 -21 0 -26 0 -31 10 -24 19 -17 19 -18 20 -9 21 0 rrcurveto
          150 hlineto
          27 0 13 -14 0 -28 rrcurveto
          -238 vlineto
          0 -23 -9 -18 -17 -14 -56 -43 -63 -21 -70 0 -108 0 -79 42 -51 85 -50 84 -26 114 -3 142 rrcurveto
          167 vlineto
          0 72 9 70 18 67 21 86 33 64 45 43 45 42 58 21 72 0 114 0 76 -69 38 -138 12 -43 29 -22 46 0 23 0 19 9 17 17 16 17 9 22 0 27 0 7 -2 10 -4 13 rrcurveto
          -57 220 -131 110 -205 0 -127 0 -96 -33 -66 -66 -124 -122 -64 -183 -3 -243 rrcurveto
          -165 vlineto
          2 -106 19 -104 34 -100 35 -100 52 -81 68 -63 69 -62 89 -32 108 0 rrcurveto
          endchar
        </CharString>
        <CharString name="H">
          0 950 -30 rmoveto
          49 0 41 41 0 49 rrcurveto
          1280 vlineto
          0 50 -41 40 -49 0 -49 0 -41 -40 0 -50 rrcurveto
          -507 vlineto
          0 -24 -19 -19 -24 0 rrcurveto
          -434 hlineto
          -24 0 -18 19 0 24 rrcurveto
          507 vlineto
          0 50 -41 40 -50 0 -49 0 -41 -40 0 -50 rrcurveto
          -1280 vlineto
          0 -49 41 -41 49 0 50 0 41 41 0 49 rrcurveto
          508 vlineto
          0 23 18 19 24 0 rrcurveto
          434 hlineto
          24 0 19 -19 0 -23 rrcurveto
          -508 vlineto
          0 -49 41 -41 49 0 rrcurveto
          endchar
        </CharString>
        <CharString name="I">
          0 920 hmoveto
          49 0 41 41 0 49 0 49 -41 41 -49 0 rrcurveto
          -188 hlineto
          -23 0 -19 19 0 24 rrcurveto
          954 vlineto
          0 24 19 18 23 0 rrcurveto
          188 hlineto
          49 0 41 41 0 49 0 50 -41 41 -49 0 rrcurveto
          -640 hlineto
          -50 0 -40 -41 0 -50 0 -49 40 -41 50 0 rrcurveto
          187 hlineto
          24 0 19 -18 0 -24 rrcurveto
          -954 vlineto
          0 -24 -19 -19 -24 0 rrcurveto
          -187 hlineto
          -50 0 -40 -41 0 -49 0 -49 40 -41 50 0 rrcurveto
          endchar
        </CharString>
        <CharString name="J">
          0 590 -30 rmoveto
          219 0 181 166 0 225 rrcurveto
          947 vlineto
          0 49 -42 43 -52 0 rrcurveto
          -403 hlineto
          -50 0 -40 -41 0 -49 0 -48 40 -43 50 0 rrcurveto
          275 hlineto
          24 0 18 -17 0 -24 rrcurveto
          -817 vlineto
          0 -57 -21 -50 -40 -42 -57 -57 -54 -10 -85 0 -127 0 -80 68 -25 87 -12 38 -35 26 -41 0 -51 0 -40 -43 0 -49 1 -73 45 -59 56 -54 97 -97 105 -19 144 0 rrcurveto
          endchar
        </CharString>
        <CharString name="K">
          0 1002 -30 rmoveto
          51 0 39 43 0 46 0 14 -4 16 -8 14 rrcurveto
          -413 682 rlineto
          -4 7 -2 6 0 7 0 10 3 9 7 9 rrcurveto
          330 451 rlineto
          12 17 7 19 0 19 0 46 -37 45 -52 0 -28 0 -27 -12 -16 -22 rrcurveto
          -403 -544 rlineto
          -9 -11 -12 -5 -12 0 -23 0 -21 16 0 27 rrcurveto
          461 vlineto
          0 50 -40 40 -50 0 -50 0 -40 -40 0 -50 rrcurveto
          -1281 vlineto
          0 -48 40 -41 50 0 50 0 40 41 0 48 rrcurveto
          362 vlineto
          0 21 6 18 13 18 rrcurveto
          91 130 rlineto
          9 12 12 4 13 0 15 0 13 -7 9 -15 rrcurveto
          361 -586 rlineto
          16 -27 30 -19 34 0 rrcurveto
          endchar
        </CharString>
        <CharString name="L">
          0 982 hmoveto
          49 0 39 41 0 48 -1 51 -36 40 -55 0 rrcurveto
          -461 hlineto
          -49 0 -38 39 0 50 rrcurveto
          1069 vlineto
          0 48 -34 44 -55 0 -54 0 -37 -41 0 -49 rrcurveto
          -1201 vlineto
          0 -77 62 -62 77 0 rrcurveto
          endchar
        </CharString>
        <CharString name="M">
          0 968 -30 rmoveto
          48 0 43 41 0 50 rrcurveto
          1260 vlineto
          0 59 -51 50 -59 0 -43 0 -41 -26 -16 -40 rrcurveto
          -211 -550 rlineto
          -8 -20 -8 -15 -23 0 -23 0 -9 15 -7 20 rrcurveto
          -212 550 rlineto
          -16 40 -40 26 -44 0 -59 0 -48 -50 0 -59 rrcurveto
          -1260 vlineto
          0 -50 40 -41 50 0 48 0 42 41 0 50 rrcurveto
          833 vlineto
          0 14 10 7 10 0 7 0 7 -4 3 -8 rrcurveto
          132 -348 rlineto
          18 -45 44 -25 46 0 47 0 45 28 17 42 rrcurveto
          132 348 rlineto
          4 8 7 4 7 0 11 0 10 -7 0 -14 rrcurveto
          -833 vlineto
          0 -50 41 -41 49 0 rrcurveto
          endchar
        </CharString>
        <CharString name="N">
          0 941 -30 rmoveto
          59 0 50 49 0 61 rrcurveto
          1260 vlineto
          0 50 -40 40 -50 0 -50 0 -40 -40 0 -50 rrcurveto
          -880 vlineto
          0 -14 -10 -7 -10 0 -7 0 -6 3 -4 9 rrcurveto
          -474 916 rlineto
          -18 37 -40 26 -41 0 -60 0 -50 -50 0 -59 rrcurveto
          -1260 vlineto
          0 -50 41 -41 49 0 50 0 41 41 0 50 rrcurveto
          880 vlineto
          0 13 9 7 10 0 7 0 6 -2 5 -9 rrcurveto
          473 -916 rlineto
          20 -39 38 -25 42 0 rrcurveto
          endchar
        </CharString>
        <CharString name="O">
          0 600 -30 rmoveto
          394 0 66 427 0 303 0 303 -69 427 -390 0 -389 0 -72 -428 0 -302 0 -301 67 -429 393 0 rrcurveto
          180 vmoveto
          -231 0 -49 316 0 234 0 235 49 315 231 0 231 0 49 -322 0 -228 0 -227 -48 -323 -232 0 rrcurveto
          endchar
        </CharString>
        <CharString name="P">
          0 310 -30 rmoveto
          50 0 40 41 0 49 rrcurveto
          457 vlineto
          0 24 19 19 24 0 rrcurveto
          234 hlineto
          209 0 174 176 0 257 0 136 -37 82 -74 75 -75 76 -91 38 -106 0 rrcurveto
          -363 hlineto
          -51 0 -43 -43 0 -51 rrcurveto
          -1246 vlineto
          0 -49 41 -41 49 0 rrcurveto
          367 770 rmoveto
          -234 hlineto
          -24 0 -19 19 0 24 rrcurveto
          394 vlineto
          0 24 19 18 24 0 rrcurveto
          234 hlineto
          111 0 92 -77 0 -149 0 -95 -20 -57 -39 -40 -41 -40 -48 -21 -55 0 rrcurveto
          endchar
        </CharString>
        <CharString name="Q">
          0 986 -421 rmoveto
          50 0 41 44 0 46 0 36 -24 36 -36 13 rrcurveto
          -390 142 rlineto
          -9 4 -11 2 -10 0 -50 0 -41 -44 0 -46 0 -36 24 -36 35 -13 rrcurveto
          391 -142 rlineto
          9 -4 11 -2 10 0 rrcurveto
          -386 391 rmoveto
          394 0 66 427 0 303 0 303 -69 427 -390 0 -389 0 -72 -428 0 -302 0 -301 67 -429 393 0 rrcurveto
          180 vmoveto
          -231 0 -49 316 0 234 0 235 49 315 231 0 231 0 49 -322 0 -228 0 -227 -48 -323 -232 0 rrcurveto
          endchar
        </CharString>
        <CharString name="R">
          0 967 -30 rmoveto
          52 0 39 44 0 47 0 13 -4 17 -7 12 rrcurveto
          -281 441 rlineto
          -4 6 -1 6 0 7 0 18 9 15 16 7 130 56 105 139 0 196 0 146 -38 70 -74 76 -74 76 -92 38 -105 0 rrcurveto
          -354 hlineto
          -51 0 -43 -43 0 -51 rrcurveto
          -1245 vlineto
          0 -52 42 -39 51 0 47 0 41 41 0 50 rrcurveto
          466 vlineto
          0 24 19 19 24 0 rrcurveto
          109 hlineto
          15 0 13 -9 8 -13 rrcurveto
          330 -532 rlineto
          18 -27 28 -19 32 0 rrcurveto
          -329 780 rmoveto
          -224 hlineto
          -24 0 -19 19 0 24 rrcurveto
          384 vlineto
          0 24 19 18 24 0 rrcurveto
          224 hlineto
          111 0 92 -69 0 -156 0 -157 -96 -87 -107 0 rrcurveto
          endchar
        </CharString>
        <CharString name="S">
          0 610 -30 rmoveto
          82 0 70 15 56 28 57 28 51 43 46 58 45 57 23 71 0 85 0 140 -71 112 -142 86 -52 31 -70 31 -90 31 -158 54 -81 85 -2 117 0 66 22 52 45 37 45 36 57 19 68 0 rrcurveto
          58 0 52 -12 45 -23 44 -23 30 -29 14 -37 17 -49 29 -24 40 0 51 0 26 29 0 59 0 9 -2 10 -2 11 -17 74 -44 61 -71 49 -71 49 -93 24 -114 0 -75 0 -66 -14 -59 -30 rrcurveto
          -60 -30 -49 -45 -40 -60 -40 -60 -19 -77 0 -93 0 -186 129 -139 258 -91 42 -14 41 -18 43 -21 101 -48 51 -60 0 -74 0 -82 -36 -61 -71 -39 -45 -23 -48 -12 -50 0 -106 3 -94 52 -82 101 rrcurveto
          -26 32 -26 16 -28 0 -26 0 -20 -9 -15 -19 -16 -19 -8 -24 0 -28 0 -12 3 -11 4 -9 27 -61 56 -58 83 -55 84 -54 92 -28 98 0 rrcurveto
          endchar
        </CharString>
        <CharString name="T">
          0 600 -30 rmoveto
          49 0 41 41 0 49 rrcurveto
          1117 vlineto
          0 25 19 18 24 0 rrcurveto
          247 hlineto
          50 0 40 40 0 49 0 50 -40 41 -50 0 rrcurveto
          -760 hlineto
          -49 0 -41 -41 0 -50 0 -49 41 -40 49 0 rrcurveto
          247 hlineto
          28 0 15 -18 0 -25 rrcurveto
          -1117 vlineto
          0 -49 41 -41 49 0 rrcurveto
          endchar
        </CharString>
        <CharString name="U">
          0 599 -30 rmoveto
          275 0 166 210 0 321 rrcurveto
          843 vlineto
          0 49 -41 41 -49 0 -50 0 -41 -41 0 -49 rrcurveto
          -843 vlineto
          0 -198 -87 -148 -173 0 -172 0 -87 155 0 191 rrcurveto
          843 vlineto
          0 49 -41 41 -49 0 -49 0 -41 -41 0 -49 rrcurveto
          -843 vlineto
          0 -321 164 -210 275 0 rrcurveto
          endchar
        </CharString>
        <CharString name="V">
          0 600 -13 rmoveto
          53 0 46 38 14 51 rrcurveto
          355 1257 rlineto
          2 9 0 6 0 7 0 48 -38 44 -52 0 -41 0 -37 -28 -10 -39 rrcurveto
          -272 -984 rlineto
          -2 -8 -9 -5 -9 0 -9 0 -7 5 -2 8 rrcurveto
          -274 984 rlineto
          -11 39 -36 28 -40 0 -46 0 -45 -39 0 -51 0 -7 1 -8 2 -9 rrcurveto
          343 -1257 rlineto
          16 -59 48 -30 60 0 rrcurveto
          endchar
        </CharString>
        <CharString name="W">
          0 906 -30 rmoveto
          58 0 50 46 2 58 rrcurveto
          68 1267 rlineto
          0 48 -43 41 -50 0 -48 0 -42 -39 -2 -49 rrcurveto
          -40 -868 rlineto
          0 -11 -8 -8 -10 0 -6 0 -9 6 -3 8 rrcurveto
          -124 459 rlineto
          -12 41 -43 29 -44 0 -45 0 -41 -29 -12 -40 rrcurveto
          -128 -460 rlineto
          -2 -8 -7 -6 -8 0 -10 0 -5 7 -1 12 rrcurveto
          -43 868 rlineto
          -2 49 -39 39 -49 0 -49 0 -43 -39 0 -48 rrcurveto
          68 -1269 rlineto
          2 -58 49 -46 58 0 46 0 42 29 16 45 rrcurveto
          188 635 rlineto
          2 8 6 5 7 0 7 0 6 -5 2 -8 rrcurveto
          188 -633 rlineto
          14 -45 43 -31 46 0 rrcurveto
          endchar
        </CharString>
        <CharString name="X">
          0 961 -30 rmoveto
          53 0 38 46 0 48 0 15 -3 15 -8 15 rrcurveto
          -324 583 rlineto
          -3 6 -2 7 0 7 0 8 2 6 3 7 rrcurveto
          301 557 rlineto
          8 15 3 15 0 15 0 49 -38 46 -53 0 -34 0 -32 -19 -16 -31 rrcurveto
          -238 -459 rlineto
          -4 -8 -5 -3 -6 0 -7 0 -4 3 -5 8 rrcurveto
          -238 459 rlineto
          -17 33 -31 17 -36 0 -53 0 -38 -46 0 -49 0 -15 4 -15 7 -15 rrcurveto
          301 -557 rlineto
          3 -7 2 -6 0 -8 0 -7 -2 -7 -3 -6 rrcurveto
          -324 -583 rlineto
          -8 -15 -4 -16 0 -15 0 -50 40 -43 54 0 32 0 32 20 16 29 rrcurveto
          264 505 rlineto
          3 7 5 2 7 0 6 0 5 -2 4 -7 rrcurveto
          261 -505 rlineto
          17 -29 31 -20 34 0 rrcurveto
          endchar
        </CharString>
        <CharString name="Y">
          0 601 -30 rmoveto
          49 0 40 41 0 50 rrcurveto
          632 vlineto
          0 13 3 15 8 13 rrcurveto
          315 562 rlineto
          8 15 4 15 0 15 0 47 -37 42 -51 0 -32 0 -33 -16 -16 -28 rrcurveto
          -226 -405 rlineto
          -7 -14 -14 -6 -14 0 -15 0 -13 6 -8 14 rrcurveto
          -222 405 rlineto
          -17 30 -33 14 -33 0 -51 0 -38 -42 0 -46 0 -15 4 -16 9 -15 rrcurveto
          317 -564 rlineto
          8 -13 4 -15 0 -17 rrcurveto
          -626 vlineto
          0 -50 41 -41 50 0 rrcurveto
          endchar
        </CharString>
        <CharString name="Z">
          0 940 hmoveto
          50 0 40 41 0 49 0 50 -40 40 -50 0 rrcurveto
          -483 hlineto
          -25 0 -17 21 0 23 0 7 2 8 4 7 rrcurveto
          591 944 rlineto
          13 22 5 24 0 25 0 77 -62 62 -76 0 rrcurveto
          -631 hlineto
          -47 0 -43 -41 0 -49 0 -50 43 -41 47 0 rrcurveto
          483 hlineto
          27 0 17 -19 0 -23 0 -7 -2 -8 -3 -6 rrcurveto
          -592 -944 rlineto
          -13 -21 -7 -25 0 -25 0 -77 64 -64 77 0 rrcurveto
          endchar
        </CharString>
        <CharString name="a">
          0 485 165 rmoveto
          -105 0 -53 82 0 163 1 93 18 81 34 70 35 69 40 55 47 39 47 40 47 20 47 0 56 0 46 -33 35 -64 23 -43 11 -46 0 -49 0 -144 -30 -115 -60 -86 -63 -86 -79 -44 -97 -2 rrcurveto
          496 -195 rmoveto
          22 0 18 5 12 10 22 17 11 24 0 31 0 14 -3 11 -5 8 -43 61 -22 116 -2 171 0 222 9 185 19 148 rrcurveto
          9 vlineto
          0 20 -7 16 -16 13 -22 19 -22 10 -24 0 -50 0 -30 -24 -8 -48 -2 -14 -6 -6 -10 0 -8 0 -7 3 -6 7 -45 53 -53 28 -62 1 -88 0 -80 -32 -74 -65 -73 -65 -61 -83 -48 -101 rrcurveto
          -48 -101 -24 -111 0 -121 0 -141 31 -108 62 -73 61 -73 80 -36 97 0 73 0 69 21 67 41 67 41 44 41 22 41 4 9 7 5 9 0 8 0 8 -14 8 -27 28 -105 40 -53 51 0 rrcurveto
          endchar
        </CharString>
        <CharString name="ampersand">
          0 700 415 rmoveto
          28 24 32 58 35 92 rrcurveto
          -281 277 rlineto
          -81 79 -41 72 0 66 0 48 15 40 28 31 29 32 39 16 51 0 40 0 34 -10 28 -20 29 -19 22 -27 17 -35 16 -35 28 -17 38 0 24 0 20 9 17 18 17 18 8 21 0 24 rrcurveto
          0 8 -3 13 -6 17 -28 71 -43 54 -59 36 -59 36 -69 18 -81 0 -92 0 -80 -31 -68 -63 -68 -63 -34 -85 0 -107 0 -109 57 -109 112 -108 rrcurveto
          142 -785 rmoveto
          92 0 89 33 89 64 88 64 72 87 55 108 55 108 28 98 0 86 0 21 -8 19 -15 16 -16 17 -21 8 -27 0 -43 0 -27 -29 -12 -60 -27 -121 -48 -101 -68 -81 -81 -94 -85 -47 -90 0 rrcurveto
          -129 0 -65 68 0 137 0 81 15 73 30 66 -48 42 -43 43 -39 45 -64 -95 -32 -116 0 -139 0 -113 33 -95 65 -77 65 -77 93 -39 119 0 rrcurveto
          510 hmoveto
          26 0 21 9 17 18 16 19 9 22 0 26 0 33 -17 48 -35 63 -34 -65 -36 -51 -39 -38 2 -56 24 -28 46 0 rrcurveto
          endchar
        </CharString>
        <CharString name="ampersand_ampersand">
          0 640 415 rmoveto
          28 24 32 58 35 92 rrcurveto
          -281 277 rlineto
          -81 79 -41 72 0 66 0 48 15 40 28 31 29 32 39 16 51 0 40 0 34 -10 28 -20 29 -19 22 -27 17 -35 16 -35 28 -17 38 0 24 0 20 9 17 18 17 18 8 21 0 24 rrcurveto
          0 8 -3 13 -6 17 -28 71 -43 54 -59 36 -59 36 -69 18 -81 0 -92 0 -80 -31 -68 -63 -68 -63 -34 -85 0 -107 0 -109 57 -109 112 -108 rrcurveto
          142 -785 rmoveto
          92 0 89 33 89 64 88 64 72 87 55 108 55 108 28 98 0 86 0 21 -8 19 -15 16 -16 17 -21 8 -27 0 -43 0 -27 -29 -12 -60 -27 -121 -48 -101 -68 -81 -81 -94 -85 -47 -90 0 rrcurveto
          -129 0 -65 68 0 137 0 81 15 73 30 66 -48 42 -43 43 -39 45 -64 -95 -32 -116 0 -139 0 -113 33 -95 65 -77 65 -77 93 -39 119 0 rrcurveto
          510 hmoveto
          26 0 21 9 17 18 16 19 9 22 0 26 0 33 -17 48 -35 63 -34 -65 -36 -51 -39 -38 2 -56 24 -28 46 0 rrcurveto
          -1403 445 rmoveto
          28 24 32 58 35 92 rrcurveto
          -281 277 rlineto
          -81 79 -41 72 0 66 0 48 15 40 28 31 29 32 39 16 51 0 40 0 34 -10 28 -20 29 -19 22 -27 17 -35 16 -35 28 -17 38 0 24 0 20 9 17 18 17 18 8 21 0 24 rrcurveto
          0 8 -3 13 -6 17 -28 71 -43 54 -59 36 -59 36 -69 18 -81 0 -92 0 -80 -31 -68 -63 -68 -63 -34 -85 0 -107 0 -109 57 -109 112 -108 rrcurveto
          142 -785 rmoveto
          92 0 89 33 89 64 88 64 72 87 55 108 55 108 28 98 0 86 0 21 -8 19 -15 16 -16 17 -21 8 -27 0 -43 0 -27 -29 -12 -60 -27 -121 -48 -101 -68 -81 -81 -94 -85 -47 -90 0 rrcurveto
          -129 0 -65 68 0 137 0 81 15 73 30 66 -48 42 -43 43 -39 45 -64 -95 -32 -116 0 -139 0 -113 33 -95 65 -77 65 -77 93 -39 119 0 rrcurveto
          510 hmoveto
          26 0 21 9 17 18 16 19 9 22 0 26 0 33 -17 48 -35 63 -34 -65 -36 -51 -39 -38 2 -56 24 -28 46 0 rrcurveto
          endchar
        </CharString>
        <CharString name="asciicircum">
          0 940 520 rmoveto
          14 0 14 4 13 7 29 16 20 31 0 32 0 15 -2 16 -11 15 rrcurveto
          -337 519 rlineto
          -22 30 -26 16 -30 0 -32 0 -28 -16 -22 -30 rrcurveto
          -338 -517 rlineto
          -10 -15 -2 -16 0 -16 0 -29 15 -30 27 -17 16 -10 17 -4 16 0 31 0 26 16 20 28 rrcurveto
          237 380 rlineto
          7 9 7 4 10 0 9 0 7 -4 8 -9 rrcurveto
          238 -378 rlineto
          20 -29 28 -18 31 0 rrcurveto
          endchar
        </CharString>
        <CharString name="asciitilde">
          0 788 432 rmoveto
          82 0 66 33 48 65 43 60 22 62 0 64 0 24 -7 21 -14 19 -15 19 -21 9 -28 0 -22 0 -18 -7 -13 -13 -13 -14 -8 -20 -4 -26 -10 -72 -30 -36 -49 0 -25 0 -19 5 -14 10 rrcurveto
          -31 22 -33 34 -34 46 -68 87 -75 44 -81 0 -86 0 -68 -33 -50 -67 -41 -57 -21 -61 0 -65 0 -29 7 -22 15 -17 15 -17 19 -8 24 0 26 0 20 7 15 15 16 15 8 20 2 25 rrcurveto
          5 72 31 36 58 0 39 0 51 -40 63 -79 71 -88 75 -43 77 0 rrcurveto
          endchar
        </CharString>
        <CharString name="asciitilde_at">
          0 985 -30 rmoveto
          27 0 24 1 22 2 47 5 24 26 0 45 0 51 -24 25 -47 0 rrcurveto
          -53 -1 rlineto
          -45 0 -34 2 -22 5 -68 12 -37 91 -7 171 -1 94 -2 88 -2 81 -2 81 -23 70 -44 59 -45 59 -63 30 -83 1 -175 -1 -120 -104 -65 -205 -27 -91 -13 -94 0 -95 0 -269 76 -134 153 0 rrcurveto
          134 2 67 54 0 107 0 18 -5 15 -10 13 -11 12 -13 6 -17 0 -12 0 -11 -5 -11 -11 -27 -29 -24 -15 -23 0 -68 0 -34 79 0 159 0 89 10 74 21 59 41 119 65 59 89 0 rrcurveto
          28 0 24 -13 21 -27 21 -27 11 -36 1 -47 rrcurveto
          8 -250 rlineto
          5 -255 73 -135 143 -13 50 -5 44 -2 39 0 rrcurveto
          -946 1211 rmoveto
          -94 -111 -69 -125 -43 -137 -41 -125 -65 -63 -90 0 -51 0 -33 5 -14 10 -31 22 -32 34 -35 46 -68 87 -75 44 -81 0 -86 0 -68 -33 -50 -67 -41 -57 -21 -61 0 -65 0 -29 7 -22 15 -17 rrcurveto
          15 -17 19 -8 24 0 25 0 21 7 16 15 15 15 9 20 1 25 5 72 31 36 58 0 39 0 51 -40 63 -79 71 -87 88 -44 104 0 89 0 72 26 55 52 65 59 47 72 29 85 rrcurveto
          43 137 59 110 74 82 63 65 59 46 56 25 56 25 64 13 72 0 259 -5 141 -183 23 -361 2 -54 2 -92 2 -129 2 -78 26 -39 49 0 59 0 30 25 3 49 5 103 2 89 0 74 rrcurveto
          -1 274 -54 200 -107 126 -118 135 -140 67 -162 0 -205 -1 -172 -83 -138 -165 rrcurveto
          endchar
        </CharString>
        <CharString name="asterisk">
          0 600 81 rmoveto
          49 0 41 41 0 49 rrcurveto
          222 vlineto
          192 -111 rlineto
          14 -8 15 -3 15 0 51 0 40 41 0 48 0 31 -16 31 -29 16 rrcurveto
          -192 112 192 111 rlineto
          29 16 16 31 0 31 0 48 -40 41 -51 0 -15 0 -15 -3 -14 -8 rrcurveto
          -192 -111 rlineto
          222 vlineto
          0 49 -41 41 -49 0 -50 0 -40 -41 0 -49 rrcurveto
          -222 vlineto
          -193 111 rlineto
          -14 8 -15 3 -15 0 -49 0 -42 -41 0 -48 0 -31 16 -31 29 -16 rrcurveto
          193 -111 -193 -111 rlineto
          -29 -17 -16 -31 0 -31 0 -48 42 -41 49 0 15 0 15 3 14 8 rrcurveto
          193 111 rlineto
          -222 vlineto
          0 -49 40 -41 50 0 rrcurveto
          endchar
        </CharString>
        <CharString name="asterisk_slash">
          0 40 -200 rmoveto
          33 0 35 21 14 33 rrcurveto
          720 1623 rlineto
          5 11 3 14 0 12 0 33 -21 34 -32 14 -12 5 -13 3 -12 0 -34 0 -34 -21 -14 -32 rrcurveto
          -720 -1623 rlineto
          -5 -12 -3 -13 0 -11 0 -34 21 -34 33 -15 11 -5 13 -3 12 0 rrcurveto
          -640 81 rmoveto
          49 0 41 41 0 49 rrcurveto
          222 vlineto
          192 -111 rlineto
          14 -8 15 -3 15 0 51 0 40 41 0 48 0 31 -16 31 -29 16 rrcurveto
          -192 112 192 111 rlineto
          29 16 16 31 0 31 0 48 -40 41 -51 0 -15 0 -15 -3 -14 -8 rrcurveto
          -192 -111 rlineto
          222 vlineto
          0 49 -41 41 -49 0 -50 0 -40 -41 0 -49 rrcurveto
          -222 vlineto
          -193 111 rlineto
          -14 8 -15 3 -15 0 -49 0 -42 -41 0 -48 0 -31 16 -31 29 -16 rrcurveto
          193 -111 -193 -111 rlineto
          -29 -17 -16 -31 0 -31 0 -48 42 -41 49 0 15 0 15 3 14 8 rrcurveto
          193 111 rlineto
          -222 vlineto
          0 -49 40 -41 50 0 rrcurveto
          endchar
        </CharString>
        <CharString name="at">
          0 985 -30 rmoveto
          27 0 24 1 22 2 47 5 24 26 0 45 0 51 -24 25 -47 0 rrcurveto
          -53 -1 rlineto
          -45 0 -34 2 -22 5 -68 12 -38 92 -6 170 -1 94 -2 88 -2 81 -2 81 -23 70 -45 59 -44 59 -63 30 -83 1 -175 -1 -120 -104 -65 -205 -27 -91 -13 -93 0 -96 0 -269 76 -134 153 0 rrcurveto
          134 2 67 54 0 107 0 18 -5 15 -11 12 -10 13 -14 6 -16 0 -12 0 -12 -5 -10 -11 -27 -29 -25 -15 -22 0 -68 0 -34 79 0 159 0 89 10 74 21 59 42 119 64 59 89 0 rrcurveto
          28 0 24 -13 21 -27 21 -26 11 -37 1 -47 rrcurveto
          8 -250 rlineto
          5 -256 73 -134 143 -13 50 -5 44 -2 39 0 rrcurveto
          52 318 rmoveto
          59 0 30 25 3 49 5 104 2 88 0 74 0 274 -54 200 -108 126 -118 135 -140 67 -162 0 -205 -1 -161 -84 -117 -168 -11 -16 -5 -20 0 -24 0 -35 9 -27 18 -18 18 -18 20 -9 21 0 rrcurveto
          26 0 20 8 15 18 51 59 50 47 48 35 48 34 60 18 72 0 259 -5 140 -183 24 -361 2 -54 2 -92 2 -129 2 -78 26 -39 49 0 rrcurveto
          endchar
        </CharString>
        <CharString name="b">
          0 619 151 rmoveto
          -14 hlineto
          -54 0 -53 23 -51 45 -51 46 -26 62 0 78 rrcurveto
          213 vlineto
          0 61 25 60 51 56 47 49 57 24 67 0 85 0 65 -29 44 -59 44 -59 22 -94 0 -128 -5 -228 -86 -116 -167 -4 rrcurveto
          33 -181 rmoveto
          142 0 102 48 64 96 63 95 33 139 1 181 0 172 -36 134 -73 98 -74 98 -99 49 -125 0 -72 0 -71 -29 -69 -59 -14 -11 -12 -5 -11 0 -21 0 -10 12 0 24 rrcurveto
          424 vlineto
          0 27 -9 22 -18 18 -19 18 -20 9 -23 0 -23 0 -21 -9 -19 -18 -19 -18 -9 -22 0 -27 rrcurveto
          -1374 vlineto
          0 -27 8 -22 16 -17 17 -17 21 -9 25 0 49 0 29 31 9 60 3 23 8 12 12 0 7 0 7 -4 7 -7 79 -76 81 -39 84 0 rrcurveto
          endchar
        </CharString>
        <CharString name="backslash">
          0 960 -200 rmoveto
          12 0 13 3 11 5 33 15 21 34 0 34 0 11 -3 13 -5 12 rrcurveto
          -720 1623 rlineto
          -14 32 -34 21 -34 0 -12 0 -13 -3 -12 -5 -32 -14 -21 -34 0 -33 0 -12 3 -14 5 -11 rrcurveto
          720 -1623 rlineto
          15 -33 34 -21 33 0 rrcurveto
          endchar
        </CharString>
        <CharString name="bar">
          0 600 -230 rmoveto
          48 0 42 42 0 48 rrcurveto
          1680 vlineto
          0 49 -42 41 -48 0 -48 0 -42 -41 0 -49 rrcurveto
          -1680 vlineto
          0 -48 42 -42 48 0 rrcurveto
          endchar
        </CharString>
        <CharString name="bar_bar">
          0 400 -230 rmoveto
          48 0 42 42 0 48 rrcurveto
          1680 vlineto
          0 49 -42 41 -48 0 -48 0 -42 -41 0 -49 rrcurveto
          -1680 vlineto
          0 -48 42 -42 48 0 rrcurveto
          -800 hmoveto
          48 0 42 42 0 48 rrcurveto
          1680 vlineto
          0 49 -42 41 -48 0 -48 0 -42 -41 0 -49 rrcurveto
          -1680 vlineto
          0 -48 42 -42 48 0 rrcurveto
          endchar
        </CharString>
        <CharString name="boxdrawingsdoubledownandhorizontal">
          0 1210 940 rmoveto
          -1220 -160 1220 hlineto
          -160 vmoveto
          -530 -1620 160 1460 370 hlineto
          -690 160 rmoveto
          -530 -160 370 -1460 160 hlineto
          endchar
        </CharString>
        <CharString name="boxdrawingsdoubledownandleft">
          0 840 940 rmoveto
          -850 -160 690 -1780 160 hlineto
          -320 1620 rmoveto
          -530 -160 370 -1460 160 hlineto
          endchar
        </CharString>
        <CharString name="boxdrawingsdoubledownandright">
          0 1210 940 rmoveto
          -850 -1940 160 1780 690 hlineto
          -160 vmoveto
          -530 -1620 160 1460 370 hlineto
          endchar
        </CharString>
        <CharString name="boxdrawingsdoublehorizontal">
          0 1210 940 rmoveto
          -1220 -160 1220 hlineto
          -160 vmoveto
          -1220 -160 1220 hlineto
          endchar
        </CharString>
        <CharString name="boxdrawingsdoubleupandhorizontal">
          0 840 2000 rmoveto
          -160 -1220 530 160 -370 hlineto
          -320 1060 rmoveto
          -160 -1060 -370 -160 530 hlineto
          690 -160 rmoveto
          -1220 -160 1220 hlineto
          endchar
        </CharString>
        <CharString name="boxdrawingsdoubleupandleft">
          0 840 2000 rmoveto
          -160 -1380 -690 -160 850 hlineto
          -320 1540 rmoveto
          -160 -1060 -370 -160 530 hlineto
          endchar
        </CharString>
        <CharString name="boxdrawingsdoubleupandright">
          0 520 2000 rmoveto
          -160 -1540 850 160 -690 hlineto
          320 1380 rmoveto
          -160 -1220 530 160 -370 hlineto
          endchar
        </CharString>
        <CharString name="boxdrawingsdoublevertical">
          0 840 2000 rmoveto
          -160 -3000 160 hlineto
          -320 3000 rmoveto
          -160 -3000 160 hlineto
          endchar
        </CharString>
        <CharString name="boxdrawingsdoubleverticalandhorizontal">
          0 520 2000 rmoveto
          -160 -1060 -370 -160 530 hlineto
          320 1220 rmoveto
          -160 -1220 530 160 -370 hlineto
          370 -320 rmoveto
          -530 -1620 160 1460 370 hlineto
          -690 160 rmoveto
          -530 -160 370 -1460 160 hlineto
          endchar
        </CharString>
        <CharString name="boxdrawingsdoubleverticalandleft">
          0 840 2000 rmoveto
          -160 -3000 160 hlineto
          -320 3000 rmoveto
          -160 -1060 -370 -160 530 hlineto
          -160 vmoveto
          -530 -160 370 -1460 160 hlineto
          endchar
        </CharString>
        <CharString name="boxdrawingsdoubleverticalandright">
          0 520 2000 rmoveto
          -160 -3000 160 hlineto
          320 3000 rmoveto
          -160 -1220 530 160 -370 hlineto
          370 -320 rmoveto
          -530 -1620 160 1460 370 hlineto
          endchar
        </CharString>
        <CharString name="boxdrawingsdowndoubleandhorizontalsingle">
          0 1210 780 rmoveto
          -1220 -160 370 -1620 160 1620 160 -1620 160 1620 370 hlineto
          endchar
        </CharString>
        <CharString name="boxdrawingsdowndoubleandleftsingle">
          0 840 780 rmoveto
          -850 -160 370 -1620 160 1620 160 -1620 160 hlineto
          endchar
        </CharString>
        <CharString name="boxdrawingsdowndoubleandrightsingle">
          0 1210 780 rmoveto
          -850 -1780 160 1620 160 -1620 160 1620 370 hlineto
          endchar
        </CharString>
        <CharString name="boxdrawingsdownheavyandhorizontallight">
          0 1210 780 rmoveto
          -1220 -160 370 -1620 480 1620 370 hlineto
          endchar
        </CharString>
        <CharString name="boxdrawingsdownheavyandleftlight">
          0 840 780 rmoveto
          -850 -160 370 -1620 480 hlineto
          endchar
        </CharString>
        <CharString name="boxdrawingsdownheavyandleftuplight">
          0 680 2000 rmoveto
          -160 -1220 -530 -160 370 -1620 480 1780 -160 hlineto
          endchar
        </CharString>
        <CharString name="boxdrawingsdownheavyandrightlight">
          0 1210 780 rmoveto
          -850 -1780 480 1620 370 hlineto
          endchar
        </CharString>
        <CharString name="boxdrawingsdownheavyandrightuplight">
          0 680 2000 rmoveto
          -160 -1220 -160 -1780 480 1620 370 160 -530 hlineto
          endchar
        </CharString>
        <CharString name="boxdrawingsdownheavyanduphorizontallight">
          0 680 2000 rmoveto
          -160 -1220 -530 -160 370 -1620 480 1620 370 160 -530 hlineto
          endchar
        </CharString>
        <CharString name="boxdrawingsdownlightandhorizontalheavy">
          0 1210 940 rmoveto
          -1220 -480 530 -1460 160 1460 530 hlineto
          endchar
        </CharString>
        <CharString name="boxdrawingsdownlightandleftheavy">
          0 680 940 rmoveto
          -690 -480 530 -1460 160 hlineto
          endchar
        </CharString>
        <CharString name="boxdrawingsdownlightandleftupheavy">
          0 840 2000 rmoveto
          -480 -1060 -370 -480 530 -1460 160 1460 160 hlineto
          endchar
        </CharString>
        <CharString name="boxdrawingsdownlightandrightheavy">
          0 1210 940 rmoveto
          -690 -1940 160 1460 530 hlineto
          endchar
        </CharString>
        <CharString name="boxdrawingsdownlightandrightupheavy">
          0 840 2000 rmoveto
          -480 -1540 160 -1460 160 1460 530 480 -370 hlineto
          endchar
        </CharString>
        <CharString name="boxdrawingsdownlightanduphorizontalheavy">
          0 840 2000 rmoveto
          -480 -1060 -370 -480 530 -1460 160 1460 530 480 -370 hlineto
          endchar
        </CharString>
        <CharString name="boxdrawingsdownsingleandhorizontaldouble">
          0 1210 940 rmoveto
          -1220 -160 1220 hlineto
          -160 vmoveto
          -1220 -160 530 -1460 160 1460 530 hlineto
          endchar
        </CharString>
        <CharString name="boxdrawingsdownsingleandleftdouble">
          0 680 940 rmoveto
          -690 -160 530 -160 -530 -160 530 -1460 160 hlineto
          endchar
        </CharString>
        <CharString name="boxdrawingsdownsingleandrightdouble">
          0 1210 940 rmoveto
          -690 -1940 160 1460 530 160 -530 160 530 hlineto
          endchar
        </CharString>
        <CharString name="boxdrawingsheavydoubledashhorizontal">
          0 1120 940 rmoveto
          -440 -480 440 hlineto
          -600 480 rmoveto
          -440 -480 440 hlineto
          endchar
        </CharString>
        <CharString name="boxdrawingsheavydoubledashvertical">
          0 840 2040 rmoveto
          -480 -960 480 hlineto
          -480 vmoveto
          -480 -960 480 hlineto
          endchar
        </CharString>
        <CharString name="boxdrawingsheavydown">
          0 840 780 rmoveto
          -480 -1780 480 hlineto
          endchar
        </CharString>
        <CharString name="boxdrawingsheavydownandhorizontal">
          0 1210 940 rmoveto
          -1220 -480 370 -1460 480 1460 370 hlineto
          endchar
        </CharString>
        <CharString name="boxdrawingsheavydownandleft">
          0 840 940 rmoveto
          -850 -480 370 -1460 480 hlineto
          endchar
        </CharString>
        <CharString name="boxdrawingsheavydownandright">
          0 1210 940 rmoveto
          -850 -1940 480 1460 370 hlineto
          endchar
        </CharString>
        <CharString name="boxdrawingsheavyhorizontal">
          0 1210 940 rmoveto
          -1220 -480 1220 hlineto
          endchar
        </CharString>
        <CharString name="boxdrawingsheavyleft">
          0 680 940 rmoveto
          -690 -480 690 hlineto
          endchar
        </CharString>
        <CharString name="boxdrawingsheavyleftandlightright">
          0 680 940 rmoveto
          -690 -480 690 160 530 160 -530 hlineto
          endchar
        </CharString>
        <CharString name="boxdrawingsheavyquadrupledashhorizontal">
          0 375 940 rmoveto
          -480 150 480 vlineto
          150 hmoveto
          -480 150 480 vlineto
          -750 hmoveto
          -480 150 480 vlineto
          750 hmoveto
          -480 150 480 vlineto
          endchar
        </CharString>
        <CharString name="boxdrawingsheavyquadrupledashvertical">
          0 360 2120 rmoveto
          -540 480 540 vlineto
          -480 -700 rmoveto
          -540 480 540 vlineto
          -480 -700 rmoveto
          -540 480 540 vlineto
          -480 -700 rmoveto
          -540 480 540 vlineto
          endchar
        </CharString>
        <CharString name="boxdrawingsheavyright">
          0 1210 940 rmoveto
          -690 -480 690 hlineto
          endchar
        </CharString>
        <CharString name="boxdrawingsheavytripledashhorizontal">
          0 320 940 rmoveto
          -240 -480 240 hlineto
          400 480 rmoveto
          -240 -480 240 hlineto
          400 480 rmoveto
          -240 -480 240 hlineto
          endchar
        </CharString>
        <CharString name="boxdrawingsheavytripledashvertical">
          0 360 2200 rmoveto
          -800 480 800 vlineto
          -480 -960 rmoveto
          -800 480 800 vlineto
          -480 -960 rmoveto
          -800 480 800 vlineto
          endchar
        </CharString>
        <CharString name="boxdrawingsheavyup">
          0 840 2000 rmoveto
          -480 -1380 480 hlineto
          endchar
        </CharString>
        <CharString name="boxdrawingsheavyupandhorizontal">
          0 840 2000 rmoveto
          -480 -1060 -370 -480 1220 480 -370 hlineto
          endchar
        </CharString>
        <CharString name="boxdrawingsheavyupandleft">
          0 840 2000 rmoveto
          -480 -1060 -370 -480 850 hlineto
          endchar
        </CharString>
        <CharString name="boxdrawingsheavyupandlightdown">
          0 840 2000 rmoveto
          -480 -1380 160 -1620 160 1620 160 hlineto
          endchar
        </CharString>
        <CharString name="boxdrawingsheavyupandright">
          0 840 2000 rmoveto
          -480 -1540 850 480 -370 hlineto
          endchar
        </CharString>
        <CharString name="boxdrawingsheavyvertical">
          0 840 2000 rmoveto
          -480 -3000 480 hlineto
          endchar
        </CharString>
        <CharString name="boxdrawingsheavyverticalandhorizontal">
          0 840 2000 rmoveto
          -480 -1060 -370 -480 370 -1460 480 1460 370 480 -370 hlineto
          endchar
        </CharString>
        <CharString name="boxdrawingsheavyverticalandleft">
          0 840 2000 rmoveto
          -480 -1060 -370 -480 370 -1460 480 hlineto
          endchar
        </CharString>
        <CharString name="boxdrawingsheavyverticalandright">
          0 840 2000 rmoveto
          -480 -3000 480 1460 370 480 -370 hlineto
          endchar
        </CharString>
        <CharString name="boxdrawingsleftdownheavyandrightuplight">
          0 680 2000 rmoveto
          -160 -1060 -530 -480 370 -1460 480 1620 370 160 -370 160 -160 hlineto
          endchar
        </CharString>
        <CharString name="boxdrawingsleftheavyandrightdownlight">
          0 680 940 rmoveto
          -690 -480 530 -1460 160 1620 530 160 -530 hlineto
          endchar
        </CharString>
        <CharString name="boxdrawingsleftheavyandrightuplight">
          0 680 2000 rmoveto
          -160 -1060 -530 -480 690 160 530 160 -530 hlineto
          endchar
        </CharString>
        <CharString name="boxdrawingsleftheavyandrightverticallight">
          0 680 2000 rmoveto
          -160 -1060 -530 -480 530 -1460 160 1620 530 160 -530 hlineto
          endchar
        </CharString>
        <CharString name="boxdrawingsleftlightandrightdownheavy">
          0 1210 940 rmoveto
          -850 -160 -370 -160 370 -1620 480 1460 370 hlineto
          endchar
        </CharString>
        <CharString name="boxdrawingsleftlightandrightupheavy">
          0 840 2000 rmoveto
          -480 -1220 -370 -160 370 -160 850 480 -370 hlineto
          endchar
        </CharString>
        <CharString name="boxdrawingsleftlightandrightverticalheavy">
          0 840 2000 rmoveto
          -480 -1220 -370 -160 370 -1620 480 1460 370 480 -370 hlineto
          endchar
        </CharString>
        <CharString name="boxdrawingsleftupheavyandrightdownlight">
          0 840 2000 rmoveto
          -480 -1060 -370 -480 530 -1460 160 1460 160 160 370 160 -370 hlineto
          endchar
        </CharString>
        <CharString name="boxdrawingslightarcdownandleft">
          0 140 780 rmoveto
          -150 -160 150 hlineto
          69 0 64 -17 58 -34 57 -35 46 -46 35 -57 34 -58 17 -64 0 -69 rrcurveto
          -1240 160 1240 vlineto
          0 75 -14 70 -28 65 -28 65 -39 57 -49 50 -50 49 -57 39 -65 28 -65 28 -70 14 -75 0 rrcurveto
          endchar
        </CharString>
        <CharString name="boxdrawingslightarcdownandright">
          0 1210 780 rmoveto
          -150 hlineto
          -75 0 -69 -14 -65 -28 -65 -28 -58 -39 -49 -49 -50 -50 -39 -57 -28 -65 -28 -65 -14 -70 0 -75 rrcurveto
          -1240 160 1240 vlineto
          0 69 17 64 35 58 34 57 46 46 58 35 57 34 64 17 69 0 rrcurveto
          150 hlineto
          endchar
        </CharString>
        <CharString name="boxdrawingslightarcupandleft">
          0 -10 620 rmoveto
          150 hlineto
          75 0 70 14 65 28 65 28 57 39 50 50 49 49 39 58 28 65 28 65 14 69 0 75 rrcurveto
          1240 -160 -1240 vlineto
          0 -69 -17 -64 -34 -57 -35 -58 -46 -46 -57 -34 -58 -35 -64 -17 -69 0 rrcurveto
          -150 hlineto
          endchar
        </CharString>
        <CharString name="boxdrawingslightarcupandright">
          0 1060 620 rmoveto
          150 160 -150 hlineto
          -69 0 -64 17 -57 35 -58 34 -46 46 -34 58 -35 57 -17 64 0 69 rrcurveto
          1240 -160 -1240 vlineto
          0 -75 14 -69 28 -65 28 -65 39 -58 50 -49 49 -50 58 -39 65 -28 65 -28 69 -14 75 0 rrcurveto
          endchar
        </CharString>
        <CharString name="boxdrawingslightdiagonalcross">
          0 74 1837 rmoveto
          1201 -2400 -145 -72 -1200 2401 rlineto
          1196 71 rmoveto
          -1201 -2400 145 -72 1200 2401 rlineto
          endchar
        </CharString>
        <CharString name="boxdrawingslightdiagonalupperlefttolowerright">
          0 74 1837 rmoveto
          1201 -2400 -145 -72 -1200 2401 rlineto
          endchar
        </CharString>
        <CharString name="boxdrawingslightdiagonalupperrighttolowerleft">
          0 1126 1837 rmoveto
          -1201 -2400 145 -72 1200 2401 rlineto
          endchar
        </CharString>
        <CharString name="boxdrawingslightdoubledashhorizontal">
          0 1120 780 rmoveto
          -440 -160 440 hlineto
          -600 160 rmoveto
          -440 -160 440 hlineto
          endchar
        </CharString>
        <CharString name="boxdrawingslightdoubledashvertical">
          0 680 2200 rmoveto
          -160 -1280 160 hlineto
          -160 vmoveto
          -160 -1280 160 hlineto
          endchar
        </CharString>
        <CharString name="boxdrawingslightdown">
          0 680 780 rmoveto
          -160 -1780 160 hlineto
          endchar
        </CharString>
        <CharString name="boxdrawingslightdownandhorizontal">
          0 1210 780 rmoveto
          -1220 -160 530 -1620 160 1620 530 hlineto
          endchar
        </CharString>
        <CharString name="boxdrawingslightdownandleft">
          0 680 780 rmoveto
          -690 -160 530 -1620 160 hlineto
          endchar
        </CharString>
        <CharString name="boxdrawingslightdownandright">
          0 1210 780 rmoveto
          -690 -1780 160 1620 530 hlineto
          endchar
        </CharString>
        <CharString name="boxdrawingslighthorizontal">
          0 1210 780 rmoveto
          -1220 -160 1220 hlineto
          endchar
        </CharString>
        <CharString name="boxdrawingslightleft">
          0 680 780 rmoveto
          -690 -160 690 hlineto
          endchar
        </CharString>
        <CharString name="boxdrawingslightleftandheavyright">
          0 1210 940 rmoveto
          -690 -160 -530 -160 530 -160 690 hlineto
          endchar
        </CharString>
        <CharString name="boxdrawingslightquadrupledashhorizontal">
          0 375 780 rmoveto
          -160 150 160 vlineto
          150 hmoveto
          -160 150 160 vlineto
          -750 hmoveto
          -160 150 160 vlineto
          750 hmoveto
          -160 150 160 vlineto
          endchar
        </CharString>
        <CharString name="boxdrawingslightquadrupledashvertical">
          0 520 2120 rmoveto
          -540 160 540 vlineto
          -160 -700 rmoveto
          -540 160 540 vlineto
          -160 -700 rmoveto
          -540 160 540 vlineto
          -160 -700 rmoveto
          -540 160 540 vlineto
          endchar
        </CharString>
        <CharString name="boxdrawingslightright">
          0 1210 780 rmoveto
          -690 -160 690 hlineto
          endchar
        </CharString>
        <CharString name="boxdrawingslighttripledashhorizontal">
          0 320 780 rmoveto
          -240 -160 240 hlineto
          400 160 rmoveto
          -240 -160 240 hlineto
          400 160 rmoveto
          -240 -160 240 hlineto
          endchar
        </CharString>
        <CharString name="boxdrawingslighttripledashvertical">
          0 520 2200 rmoveto
          -800 160 800 vlineto
          -160 -960 rmoveto
          -800 160 800 vlineto
          -160 -960 rmoveto
          -800 160 800 vlineto
          endchar
        </CharString>
        <CharString name="boxdrawingslightup">
          0 680 2000 rmoveto
          -160 -1380 160 hlineto
          endchar
        </CharString>
        <CharString name="boxdrawingslightupandheavydown">
          0 680 2000 rmoveto
          -160 -1220 -160 -1780 480 1780 -160 hlineto
          endchar
        </CharString>
        <CharString name="boxdrawingslightupandhorizontal">
          0 680 2000 rmoveto
          -160 -1220 -530 -160 1220 160 -530 hlineto
          endchar
        </CharString>
        <CharString name="boxdrawingslightupandleft">
          0 680 2000 rmoveto
          -160 -1220 -530 -160 690 hlineto
          endchar
        </CharString>
        <CharString name="boxdrawingslightupandright">
          0 680 2000 rmoveto
          -160 -1380 690 160 -530 hlineto
          endchar
        </CharString>
        <CharString name="boxdrawingslightvertical">
          0 680 2000 rmoveto
          -160 -3000 160 hlineto
          endchar
        </CharString>
        <CharString name="boxdrawingslightverticalandhorizontal">
          0 680 2000 rmoveto
          -160 -1220 -530 -160 530 -1620 160 1620 530 160 -530 hlineto
          endchar
        </CharString>
        <CharString name="boxdrawingslightverticalandleft">
          0 680 2000 rmoveto
          -160 -1220 -530 -160 530 -1620 160 hlineto
          endchar
        </CharString>
        <CharString name="boxdrawingslightverticalandright">
          0 680 2000 rmoveto
          -160 -3000 160 1620 530 160 -530 hlineto
          endchar
        </CharString>
        <CharString name="boxdrawingsrightdownheavyandleftuplight">
          0 680 2000 rmoveto
          -160 -1060 -160 -160 -370 -160 370 -1620 480 1460 370 480 -530 hlineto
          endchar
        </CharString>
        <CharString name="boxdrawingsrightheavyandleftdownlight">
          0 1210 940 rmoveto
          -690 -160 -530 -160 530 -1620 160 1460 530 hlineto
          endchar
        </CharString>
        <CharString name="boxdrawingsrightheavyandleftuplight">
          0 680 2000 rmoveto
          -160 -1220 -530 -160 530 -160 690 480 -530 hlineto
          endchar
        </CharString>
        <CharString name="boxdrawingsrightheavyandleftverticallight">
          0 680 2000 rmoveto
          -160 -1220 -530 -160 530 -1620 160 1460 530 480 -530 hlineto
          endchar
        </CharString>
        <CharString name="boxdrawingsrightlightandleftdownheavy">
          0 840 940 rmoveto
          -850 -480 370 -1460 480 1620 370 160 -370 hlineto
          endchar
        </CharString>
        <CharString name="boxdrawingsrightlightandleftupheavy">
          0 840 2000 rmoveto
          -480 -1060 -370 -480 850 160 370 160 -370 hlineto
          endchar
        </CharString>
        <CharString name="boxdrawingsrightlightandleftverticalheavy">
          0 840 2000 rmoveto
          -480 -1060 -370 -480 370 -1460 480 1620 370 160 -370 hlineto
          endchar
        </CharString>
        <CharString name="boxdrawingsrightupheavyandleftdownlight">
          0 840 2000 rmoveto
          -480 -1220 -370 -160 370 -160 160 -1460 160 1460 530 480 -370 hlineto
          endchar
        </CharString>
        <CharString name="boxdrawingsupdoubleandhorizontalsingle">
          0 840 2000 rmoveto
          -160 -1220 -160 1220 -160 -1220 -370 -160 1220 160 -370 hlineto
          endchar
        </CharString>
        <CharString name="boxdrawingsupdoubleandleftsingle">
          0 840 2000 rmoveto
          -160 -1220 -160 1220 -160 -1220 -370 -160 850 hlineto
          endchar
        </CharString>
        <CharString name="boxdrawingsupdoubleandrightsingle">
          0 840 2000 rmoveto
          -160 -1220 -160 1220 -160 -1380 850 160 -370 hlineto
          endchar
        </CharString>
        <CharString name="boxdrawingsupheavyanddownhorizontallight">
          0 840 2000 rmoveto
          -480 -1220 -370 -160 530 -1620 160 1620 530 160 -370 hlineto
          endchar
        </CharString>
        <CharString name="boxdrawingsupheavyandhorizontallight">
          0 840 2000 rmoveto
          -480 -1220 -370 -160 1220 160 -370 hlineto
          endchar
        </CharString>
        <CharString name="boxdrawingsupheavyandleftdownlight">
          0 840 2000 rmoveto
          -480 -1220 -370 -160 530 -1620 160 1620 160 hlineto
          endchar
        </CharString>
        <CharString name="boxdrawingsupheavyandleftlight">
          0 840 2000 rmoveto
          -480 -1220 -370 -160 850 hlineto
          endchar
        </CharString>
        <CharString name="boxdrawingsupheavyandrightdownlight">
          0 840 2000 rmoveto
          -480 -1380 160 -1620 160 1620 530 160 -370 hlineto
          endchar
        </CharString>
        <CharString name="boxdrawingsupheavyandrightlight">
          0 840 2000 rmoveto
          -480 -1380 850 160 -370 hlineto
          endchar
        </CharString>
        <CharString name="boxdrawingsuplightanddownhorizontalheavy">
          0 680 2000 rmoveto
          -160 -1060 -530 -480 370 -1460 480 1460 370 480 -530 hlineto
          endchar
        </CharString>
        <CharString name="boxdrawingsuplightandhorizontalheavy">
          0 680 2000 rmoveto
          -160 -1060 -530 -480 1220 480 -530 hlineto
          endchar
        </CharString>
        <CharString name="boxdrawingsuplightandleftdownheavy">
          0 680 2000 rmoveto
          -160 -1060 -530 -480 370 -1460 480 1940 -160 hlineto
          endchar
        </CharString>
        <CharString name="boxdrawingsuplightandleftheavy">
          0 680 2000 rmoveto
          -160 -1060 -530 -480 690 hlineto
          endchar
        </CharString>
        <CharString name="boxdrawingsuplightandrightdownheavy">
          0 680 2000 rmoveto
          -160 -1060 -160 -1940 480 1460 370 480 -530 hlineto
          endchar
        </CharString>
        <CharString name="boxdrawingsuplightandrightheavy">
          0 680 2000 rmoveto
          -160 -1540 690 480 -530 hlineto
          endchar
        </CharString>
        <CharString name="boxdrawingsupsingleandhorizontaldouble">
          0 680 2000 rmoveto
          -160 -1060 -530 -160 1220 160 -530 hlineto
          530 -320 rmoveto
          -1220 -160 1220 hlineto
          endchar
        </CharString>
        <CharString name="boxdrawingsupsingleandleftdouble">
          0 680 2000 rmoveto
          -160 -1060 -530 -160 530 -160 -530 -160 690 hlineto
          endchar
        </CharString>
        <CharString name="boxdrawingsupsingleandrightdouble">
          0 680 2000 rmoveto
          -160 -1540 690 160 -530 160 530 160 -530 hlineto
          endchar
        </CharString>
        <CharString name="boxdrawingsverticaldoubleandhorizontalsingle">
          0 840 2000 rmoveto
          -160 -1220 -160 1220 -160 -1220 -370 -160 370 -1620 160 1620 160 -1620 160 1620 370 160 -370 hlineto
          endchar
        </CharString>
        <CharString name="boxdrawingsverticaldoubleandleftsingle">
          0 520 2000 rmoveto
          -160 -1220 -370 -160 370 -1620 160 hlineto
          320 3000 rmoveto
          -160 -3000 160 hlineto
          endchar
        </CharString>
        <CharString name="boxdrawingsverticaldoubleandrightsingle">
          0 840 2000 rmoveto
          -160 -3000 160 1620 370 160 -370 hlineto
          -320 1220 rmoveto
          -160 -3000 160 hlineto
          endchar
        </CharString>
        <CharString name="boxdrawingsverticalheavyandhorizontallight">
          0 840 2000 rmoveto
          -480 -1220 -370 -160 370 -1620 480 1620 370 160 -370 hlineto
          endchar
        </CharString>
        <CharString name="boxdrawingsverticalheavyandleftlight">
          0 840 2000 rmoveto
          -480 -1220 -370 -160 370 -1620 480 hlineto
          endchar
        </CharString>
        <CharString name="boxdrawingsverticalheavyandrightlight">
          0 840 2000 rmoveto
          -480 -3000 480 1620 370 160 -370 hlineto
          endchar
        </CharString>
        <CharString name="boxdrawingsverticallightandhorizontalheavy">
          0 680 2000 rmoveto
          -160 -1060 -530 -480 530 -1460 160 1460 530 480 -530 hlineto
          endchar
        </CharString>
        <CharString name="boxdrawingsverticallightandleftheavy">
          0 680 2000 rmoveto
          -160 -1060 -530 -480 530 -1460 160 hlineto
          endchar
        </CharString>
        <CharString name="boxdrawingsverticallightandrightheavy">
          0 680 2000 rmoveto
          -160 -3000 160 1460 530 480 -530 hlineto
          endchar
        </CharString>
        <CharString name="boxdrawingsverticalsingleandhorizontaldouble">
          0 680 2000 rmoveto
          -160 -1060 -530 -160 530 -160 -530 -160 530 -1460 160 1460 530 160 -530 160 530 160 -530 hlineto
          endchar
        </CharString>
        <CharString name="boxdrawingsverticalsingleandleftdouble">
          0 680 2000 rmoveto
          -160 -1060 -530 -160 530 -160 -530 -160 530 -1460 160 hlineto
          endchar
        </CharString>
        <CharString name="boxdrawingsverticalsingleandrightdouble">
          0 680 2000 rmoveto
          -160 -3000 160 1460 530 160 -530 160 530 160 -530 hlineto
          endchar
        </CharString>
        <CharString name="braceleft">
          0 515 700 rmoveto
          0 11 5 10 10 8 62 54 31 96 0 140 rrcurveto
          -3 208 rlineto
          -2 40 -1 28 0 17 0 60 26 48 53 36 33 23 55 11 76 0 rrcurveto
          69 hlineto
          21 0 19 8 17 16 16 16 8 20 0 24 0 30 -8 22 -16 15 -16 15 -19 7 -22 0 rrcurveto
          -92 hlineto
          -43 0 -34 -1 -26 -2 -26 -1 -29 -6 -32 -10 -33 -10 -29 -15 -25 -21 -85 -65 -42 -94 0 -125 0 -27 2 -56 3 -83 3 -84 2 -51 0 -20 0 -73 -18 -54 -35 -35 -25 -25 -32 -12 -39 0 rrcurveto
          -69 0 -35 -31 0 -62 0 -62 35 -31 69 0 39 0 32 -12 25 -25 35 -35 18 -54 0 -73 0 -20 -2 -51 -3 -84 -3 -83 -2 -56 0 -27 0 -125 42 -94 85 -65 25 -21 29 -15 33 -10 rrcurveto
          32 -10 29 -6 26 -1 26 -2 34 -1 43 0 rrcurveto
          91 hlineto
          22 0 19 7 16 15 16 15 8 22 0 30 0 24 -8 20 -16 16 -17 16 -19 8 -21 0 rrcurveto
          -68 hlineto
          -76 0 -55 11 -33 23 -53 36 -26 48 0 60 0 17 1 28 2 40 rrcurveto
          3 208 rlineto
          0 140 -31 96 -62 54 -10 8 -5 10 0 11 rrcurveto
          endchar
        </CharString>
        <CharString name="braceright">
          0 685 700 rmoveto
          0 -11 -5 -10 -10 -8 -62 -54 -31 -96 0 -140 rrcurveto
          3 -208 rlineto
          2 -40 1 -28 0 -17 0 -60 -26 -48 -53 -36 -33 -23 -55 -11 -76 0 rrcurveto
          -68 hlineto
          -21 0 -19 -8 -17 -16 -16 -16 -8 -20 0 -24 0 -30 8 -22 16 -15 16 -15 19 -7 22 0 rrcurveto
          91 hlineto
          43 0 34 1 26 2 26 1 29 6 32 10 33 10 29 15 25 21 85 65 42 94 0 125 0 27 -2 56 -3 83 -3 84 -2 51 0 20 0 73 18 54 35 35 25 25 32 12 39 0 rrcurveto
          69 0 35 31 0 62 0 62 -35 31 -69 0 -39 0 -32 12 -25 25 -35 35 -18 54 0 73 0 20 2 51 3 84 3 83 2 56 0 27 0 125 -42 94 -85 65 -25 21 -29 15 -33 10 rrcurveto
          -32 10 -29 6 -26 1 -26 2 -34 1 -43 0 rrcurveto
          -92 hlineto
          -22 0 -19 -7 -16 -15 -16 -15 -8 -22 0 -30 0 -24 8 -20 16 -16 17 -16 19 -8 21 0 rrcurveto
          69 hlineto
          76 0 55 -11 33 -23 53 -36 26 -48 0 -60 0 -17 -1 -28 -2 -40 rrcurveto
          -3 -208 rlineto
          0 -140 31 -96 62 -54 10 -8 5 -10 0 -11 rrcurveto
          endchar
        </CharString>
        <CharString name="bracketleft">
          0 840 -270 rmoveto
          49 0 41 40 0 50 0 49 -41 41 -49 0 rrcurveto
          -337 hlineto
          -21 0 -12 12 0 21 rrcurveto
          1515 vlineto
          0 19 14 13 19 0 rrcurveto
          337 hlineto
          49 0 41 41 0 49 0 50 -41 40 -49 0 rrcurveto
          -456 hlineto
          -52 0 -42 -42 0 -51 rrcurveto
          -1754 vlineto
          0 -51 42 -42 52 0 rrcurveto
          endchar
        </CharString>
        <CharString name="bracketright">
          0 360 -270 rmoveto
          456 hlineto
          52 0 42 42 0 51 rrcurveto
          1754 vlineto
          0 51 -42 42 -52 0 rrcurveto
          -456 hlineto
          -49 0 -41 -40 0 -50 0 -49 41 -41 49 0 rrcurveto
          337 hlineto
          19 0 14 -13 0 -19 rrcurveto
          -1515 vlineto
          0 -21 -12 -12 -21 0 rrcurveto
          -337 hlineto
          -49 0 -41 -41 0 -49 0 -50 41 -40 49 0 rrcurveto
          endchar
        </CharString>
        <CharString name="bracketright_numbersign">
          0 1050 870 rmoveto
          24 0 21 9 18 18 18 18 9 21 0 25 0 24 -9 21 -18 18 -18 17 -21 9 -24 0 rrcurveto
          -460 -180 hlineto
          -189 -900 rmoveto
          24 0 21 9 18 18 18 18 9 21 0 24 rrcurveto
          170 -181 -170 vlineto
          0 -24 9 -21 18 -18 18 -18 21 -9 25 0 rrcurveto
          90 680 rmoveto
          691 vlineto
          0 24 -9 21 -18 18 -18 17 -21 9 -25 0 -24 0 -21 -9 -18 -17 -18 -18 -9 -21 0 -24 rrcurveto
          -691 vlineto
          491 -680 rmoveto
          24 0 21 9 18 18 17 18 9 21 0 24 rrcurveto
          690 -180 -690 vlineto
          0 -24 9 -21 18 -18 18 -18 21 -9 25 0 rrcurveto
          89 1200 rmoveto
          171 vlineto
          0 24 -9 21 -17 18 -18 17 -21 9 -25 0 -24 0 -21 -9 -18 -17 -18 -18 -9 -21 0 -24 rrcurveto
          -171 vlineto
          340 -820 rmoveto
          24 0 21 9 18 18 18 18 9 21 0 24 0 24 -9 21 -18 18 -18 18 -21 9 -24 0 rrcurveto
          -60 -180 hlineto
          -1280 700 rmoveto
          527 vlineto
          0 25 -9 22 -18 19 -19 18 -22 9 -26 0 rrcurveto
          -456 hlineto
          -25 0 -21 -9 -17 -17 -18 -18 -9 -21 0 -25 0 -25 9 -21 18 -17 17 -18 21 -9 25 0 rrcurveto
          337 hlineto
          22 0 11 -11 0 -21 rrcurveto
          -1515 vlineto
          0 -22 -11 -11 -22 0 rrcurveto
          -337 hlineto
          -25 0 -21 -9 -17 -17 -18 -18 -9 -21 0 -25 0 -25 9 -21 18 -17 17 -18 21 -9 25 0 rrcurveto
          456 hlineto
          26 0 22 9 19 19 18 18 9 22 0 25 rrcurveto
          527 900 180 -900 340 500 180 vlineto
          endchar
        </CharString>
        <CharString name="c">
          0 673 -30 rmoveto
          111 0 106 40 102 80 22 16 10 21 0 27 0 28 -7 21 -14 16 -15 17 -18 8 -21 0 -18 0 -15 -5 -11 -8 -75 -53 -73 -27 -72 0 -100 0 -78 33 -53 65 -54 65 -27 89 0 113 rrcurveto
          0 123 28 92 57 63 56 62 76 32 97 0 62 0 63 -20 64 -39 15 -10 16 -4 16 0 26 0 20 9 13 19 14 19 7 21 0 21 0 27 -10 22 -20 19 -79 72 -97 36 -114 0 rrcurveto
          -91 0 -85 -21 -77 -43 -78 -42 -62 -61 -47 -80 -47 -79 -23 -106 0 -132 0 -114 21 -97 41 -82 42 -81 60 -62 78 -44 78 -44 86 -22 94 0 rrcurveto
          endchar
        </CharString>
        <CharString name="colon">
          0 604 -30 rmoveto
          43 0 37 16 31 32 31 33 16 38 0 45 0 46 -16 39 -31 32 -31 33 -37 16 -43 0 -46 0 -39 -16 -32 -33 -31 -32 -16 -39 0 -46 0 -45 16 -38 31 -33 32 -32 39 -16 46 0 rrcurveto
          781 vmoveto
          43 0 37 16 31 32 31 32 16 39 0 45 0 46 -16 39 -31 32 -31 32 -37 16 -43 0 -46 0 -39 -16 -32 -32 -31 -32 -16 -39 0 -46 0 -45 16 -39 31 -32 32 -32 39 -16 46 0 rrcurveto
          endchar
        </CharString>
        <CharString name="colon_center">
          0 604 90 rmoveto
          43 0 37 16 31 32 31 33 16 38 0 45 0 46 -16 39 -31 32 -31 33 -37 16 -43 0 -46 0 -39 -16 -32 -33 -31 -32 -16 -39 0 -46 0 -45 16 -38 31 -33 32 -32 39 -16 46 0 rrcurveto
          591 vmoveto
          43 0 37 16 31 32 31 32 16 39 0 45 0 46 -16 39 -31 32 -31 32 -37 16 -43 0 -46 0 -39 -16 -32 -32 -31 -32 -16 -39 0 -46 0 -45 16 -39 31 -32 32 -32 39 -16 46 0 rrcurveto
          endchar
        </CharString>
        <CharString name="colon_center_left">
          0 304 90 rmoveto
          43 0 37 16 31 32 31 33 16 38 0 45 0 46 -16 39 -31 32 -31 33 -37 16 -43 0 -46 0 -39 -16 -32 -33 -31 -32 -16 -39 0 -46 0 -45 16 -38 31 -33 32 -32 39 -16 46 0 rrcurveto
          591 vmoveto
          43 0 37 16 31 32 31 32 16 39 0 45 0 46 -16 39 -31 32 -31 32 -37 16 -43 0 -46 0 -39 -16 -32 -32 -31 -32 -16 -39 0 -46 0 -45 16 -39 31 -32 32 -32 39 -16 46 0 rrcurveto
          endchar
        </CharString>
        <CharString name="colon_center_right">
          0 904 90 rmoveto
          43 0 37 16 31 32 31 33 16 38 0 45 0 46 -16 39 -31 32 -31 33 -37 16 -43 0 -46 0 -39 -16 -32 -33 -31 -32 -16 -39 0 -46 0 -45 16 -38 31 -33 32 -32 39 -16 46 0 rrcurveto
          591 vmoveto
          43 0 37 16 31 32 31 32 16 39 0 45 0 46 -16 39 -31 32 -31 32 -37 16 -43 0 -46 0 -39 -16 -32 -32 -31 -32 -16 -39 0 -46 0 -45 16 -39 31 -32 32 -32 39 -16 46 0 rrcurveto
          endchar
        </CharString>
        <CharString name="comma">
          0 371 -413 rmoveto
          147 15 113 58 79 101 57 74 29 84 0 93 0 106 -27 79 -53 54 -33 33 -38 16 -44 0 -59 0 -43 -21 -26 -44 -17 -24 -9 -27 0 -30 0 -47 19 -43 38 -37 38 -38 20 -38 0 -39 rrcurveto
          0 -36 -18 -32 -36 -28 -36 -29 -48 -18 -62 -8 -56 -6 -28 -32 0 -58 6 -52 31 -26 56 0 rrcurveto
          endchar
        </CharString>
        <CharString name="d">
          0 582 151 rmoveto
          -167 4 -86 116 -5 228 0 128 22 94 44 59 44 59 65 29 85 0 67 0 57 -24 46 -49 51 -56 26 -60 0 -61 rrcurveto
          -213 vlineto
          0 -78 -26 -62 -51 -46 -51 -45 -53 -23 -54 0 rrcurveto
          -47 -181 rmoveto
          84 0 81 39 78 76 7 7 7 4 8 0 12 0 7 -12 4 -23 8 -60 29 -31 50 0 25 0 21 9 16 17 17 17 8 22 0 27 rrcurveto
          1374 vlineto
          0 27 -9 22 -19 18 -19 18 -21 9 -23 0 -23 0 -21 -9 -18 -18 -18 -18 -9 -22 0 -27 rrcurveto
          -424 vlineto
          0 -24 -11 -12 -20 0 -11 0 -13 5 -13 11 -69 59 -71 29 -72 0 -126 0 -99 -49 -73 -98 -73 -98 -36 -134 0 -172 1 -181 32 -139 64 -95 63 -96 103 -48 142 0 rrcurveto
          endchar
        </CharString>
        <CharString name="dagger">
          0 510 1170 rmoveto
          180 170 hlineto
          0 25 -9 21 -18 18 -18 17 -21 9 -24 0 -24 0 -21 -9 -18 -17 -18 -18 -9 -21 0 -25 rrcurveto
          180 -590 rmoveto
          -180 -690 hlineto
          0 -24 9 -21 18 -18 18 -18 21 -9 24 0 24 0 21 9 18 18 18 18 9 21 0 24 rrcurveto
          340 900 rmoveto
          0 25 -9 21 -17 18 -18 17 -21 9 -25 0 rrcurveto
          -680 hlineto
          -25 0 -21 -9 -17 -17 -18 -18 -9 -21 0 -25 0 -25 9 -21 18 -17 17 -18 21 -9 25 0 rrcurveto
          680 hlineto
          25 0 21 9 18 18 17 17 9 21 0 25 rrcurveto
          endchar
        </CharString>
        <CharString name="dollar">
          0 510 977 rmoveto
          39 -35 60 -29 81 -24 rrcurveto
          651 vlineto
          0 25 -9 21 -17 18 -18 17 -21 9 -25 0 -25 0 -21 -9 -17 -17 -18 -18 -9 -21 0 -25 rrcurveto
          180 -1109 rmoveto
          -32 27 -60 27 -88 29 rrcurveto
          -654 vlineto
          0 -25 9 -21 18 -17 17 -18 21 -9 25 0 25 0 21 9 18 18 17 17 9 21 0 25 rrcurveto
          110 1539 rmoveto
          -204 vlineto
          28 -21 18 -22 8 -24 17 -49 29 -24 40 0 51 0 26 29 0 59 0 11 -1 10 -3 9 -17 74 -44 61 -71 49 -21 15 -27 14 -33 13 rrcurveto
          -400 -1382 rmoveto
          218 vlineto
          -26 22 -24 25 -22 27 -25 32 -27 16 -28 0 -26 0 -21 -9 -15 -19 -15 -19 -8 -23 0 -29 0 -12 2 -11 5 -9 27 -61 56 -58 83 -54 17 -12 22 -12 25 -12 rrcurveto
          400 205 rmoveto
          -218 vlineto
          9 4 6 3 3 2 57 28 51 43 45 58 45 57 22 71 0 85 0 140 -70 113 -141 86 -52 29 -71 31 -89 31 -163 61 -83 86 -2 110 0 44 11 38 22 33 rrcurveto
          228 vlineto
          -61 -34 -49 -45 -35 -55 -40 -60 -20 -77 0 -93 0 -186 129 -138 259 -91 41 -15 41 -18 43 -21 101 -47 51 -61 0 -74 0 -59 -20 -50 -40 -39 rrcurveto
          endchar
        </CharString>
        <CharString name="e">
          0 646 -30 rmoveto
          139 0 122 49 106 96 17 16 9 19 0 21 0 19 -8 19 -14 19 -15 20 -20 9 -26 0 -13 0 -13 -4 -12 -10 -77 -61 -88 -31 -99 0 -74 0 -71 24 -66 49 -67 49 -33 65 0 81 rrcurveto
          0 25 15 12 30 0 rrcurveto
          584 -2 rlineto
          25 0 21 9 15 19 16 19 7 21 0 24 -1 122 -18 98 -33 74 -34 74 -50 59 -65 43 -65 43 -77 21 -90 0 -85 0 -75 -22 -67 -43 -67 -44 -57 -61 -45 -80 -46 -79 -22 -101 0 -122 rrcurveto
          0 -224 70 -159 140 -95 80 -53 92 -27 105 0 rrcurveto
          181 662 rmoveto
          -427 hlineto
          -34 0 -17 10 0 20 0 28 9 30 17 31 23 38 32 35 42 30 42 31 50 15 59 0 81 0 61 -24 44 -48 43 -48 22 -54 0 -60 0 -22 -16 -12 -31 0 rrcurveto
          endchar
        </CharString>
        <CharString name="eight">
          0 600 -30 rmoveto
          261 0 176 140 0 241 0 167 -84 126 -133 76 -7 5 -4 6 0 7 0 7 2 5 7 3 127 76 65 103 0 127 0 219 -158 152 -252 0 -253 0 -157 -152 0 -219 0 -127 62 -103 127 -76 rrcurveto
          6 -4 3 -5 0 -6 0 -7 -4 -6 -7 -5 -136 -77 -80 -125 0 -167 0 -242 160 -139 279 0 rrcurveto
          873 vmoveto
          -28 0 -13 3 -18 6 -113 39 -58 60 0 101 0 122 89 76 141 0 140 0 90 -73 0 -125 0 -99 -60 -59 -120 -44 -13 -5 -15 -2 -22 0 rrcurveto
          -2 -693 rmoveto
          -189 0 -76 77 0 146 0 119 80 94 90 28 24 8 45 6 28 0 30 0 51 -7 15 -6 114 -49 51 -72 0 -121 0 -146 -72 -77 -191 0 rrcurveto
          endchar
        </CharString>
        <CharString name="equal">
          0 1030 350 rmoveto
          0 49 -41 41 -49 0 rrcurveto
          -680 hlineto
          -50 0 -40 -41 0 -49 0 -50 40 -40 50 0 rrcurveto
          680 hlineto
          49 0 41 40 0 50 rrcurveto
          400 vmoveto
          0 49 -41 41 -49 0 rrcurveto
          -680 hlineto
          -50 0 -40 -41 0 -49 0 -50 40 -40 50 0 rrcurveto
          680 hlineto
          49 0 41 40 0 50 rrcurveto
          endchar
        </CharString>
        <CharString name="exclam">
          0 604 -30 rmoveto
          43 0 37 16 31 32 31 33 16 38 0 45 0 46 -16 39 -31 32 -31 33 -37 16 -43 0 -46 0 -39 -16 -32 -33 -31 -32 -16 -39 0 -46 0 -45 16 -38 31 -33 32 -32 39 -16 46 0 rrcurveto
          -4 499 rmoveto
          43 0 38 37 1 43 rrcurveto
          25 805 rlineto
          0 57 -49 50 -58 0 -59 0 -48 -51 0 -57 rrcurveto
          25 -804 rlineto
          1 -43 38 -37 43 0 rrcurveto
          endchar
        </CharString>
        <CharString name="exclam_exclam">
          0 404 -30 rmoveto
          43 0 37 16 31 32 31 33 16 38 0 45 0 46 -16 39 -31 32 -31 33 -37 16 -43 0 -46 0 -39 -16 -32 -33 -31 -32 -16 -39 0 -46 0 -45 16 -38 31 -33 32 -32 39 -16 46 0 rrcurveto
          -4 499 rmoveto
          43 0 38 37 1 43 rrcurveto
          25 805 rlineto
          0 57 -49 50 -58 0 -59 0 -48 -51 0 -57 rrcurveto
          25 -804 rlineto
          1 -43 38 -37 43 0 rrcurveto
          -796 -499 rmoveto
          43 0 37 16 31 32 31 33 16 38 0 45 0 46 -16 39 -31 32 -31 33 -37 16 -43 0 -46 0 -39 -16 -32 -33 -31 -32 -16 -39 0 -46 0 -45 16 -38 31 -33 32 -32 39 -16 46 0 rrcurveto
          -4 499 rmoveto
          43 0 38 37 1 43 rrcurveto
          25 805 rlineto
          0 57 -49 50 -58 0 -59 0 -48 -51 0 -57 rrcurveto
          25 -804 rlineto
          1 -43 38 -37 43 0 rrcurveto
          endchar
        </CharString>
        <CharString name="f">
          0 513 -30 rmoveto
          50 0 41 41 0 49 rrcurveto
          768 vlineto
          0 23 18 19 24 0 rrcurveto
          356 hlineto
          49 0 41 41 0 49 0 50 -41 40 -49 0 rrcurveto
          -356 hlineto
          -24 0 -18 19 0 17 rrcurveto
          82 vlineto
          0 96 69 86 103 0 rrcurveto
          208 hlineto
          49 0 41 41 0 49 0 49 -41 41 -49 0 rrcurveto
          -246 hlineto
          -181 0 -134 -151 0 -173 rrcurveto
          -120 vlineto
          0 -17 -18 -19 -24 0 rrcurveto
          -145 hlineto
          -49 0 -41 -40 0 -50 0 -49 41 -41 49 0 rrcurveto
          145 hlineto
          24 0 18 -19 0 -23 rrcurveto
          -768 vlineto
          0 -49 41 -41 49 0 rrcurveto
          endchar
        </CharString>
        <CharString name="five">
          0 807 401 rmoveto
          -24 -165 -91 -83 -157 -3 -120 0 -77 6 -35 11 -18 5 -19 3 -21 0 -7 0 -11 -2 -14 -5 -14 -5 -13 -9 -11 -14 -12 -14 -6 -21 0 -28 0 -23 8 -19 16 -16 34 -33 120 -16 207 0 rrcurveto
          139 0 110 41 81 83 77 83 41 102 8 120 2 26 1 26 0 28 0 246 -174 123 -347 0 rrcurveto
          -60 hlineto
          -12 0 -12 4 -10 8 -11 9 -5 10 0 11 rrcurveto
          304 vlineto
          0 12 5 10 11 8 10 9 12 4 12 0 rrcurveto
          464 hlineto
          24 0 21 8 16 17 17 17 8 21 0 23 0 24 -8 21 -17 17 -16 17 -21 8 -24 0 rrcurveto
          -600 hlineto
          -25 0 -22 -9 -19 -18 -19 -19 -9 -22 0 -26 rrcurveto
          -548 vlineto
          0 -25 9 -23 19 -18 19 -19 22 -9 25 0 rrcurveto
          163 hlineto
          124 0 92 -19 59 -39 59 -38 30 -51 0 -62 0 -23 -1 -21 -3 -20 rrcurveto
          endchar
        </CharString>
        <CharString name="four">
          0 806 -30 rmoveto
          48 0 41 41 0 49 rrcurveto
          226 vlineto
          0 12 8 7 11 0 rrcurveto
          77 hlineto
          48 0 42 42 0 48 0 48 -42 42 -48 0 rrcurveto
          -77 hlineto
          -11 0 -8 7 0 12 rrcurveto
          814 vlineto
          0 60 -51 52 -61 0 -37 0 -36 -20 -21 -31 rrcurveto
          -579 -868 rlineto
          -14 -21 -7 -27 0 -25 0 -72 60 -61 72 0 rrcurveto
          476 hlineto
          12 0 7 -7 0 -12 rrcurveto
          -226 vlineto
          0 -49 41 -41 49 0 rrcurveto
          -109 515 rmoveto
          -344 hlineto
          -12 0 -7 8 0 11 0 4 1 3 2 3 rrcurveto
          357 543 rlineto
          3 5 3 1 4 0 8 0 4 -3 0 -9 rrcurveto
          -547 vlineto
          0 -12 -7 -7 -12 0 rrcurveto
          endchar
        </CharString>
        <CharString name="g">
          0 568 168 rmoveto
          -82 0 -63 30 -44 58 -44 59 -22 87 0 115 5 242 86 122 168 4 62 0 57 -23 51 -46 51 -46 26 -62 0 -78 rrcurveto
          -211 vlineto
          0 -61 -26 -59 -51 -56 -47 -50 -58 -25 -69 0 rrcurveto
          -4 -648 rmoveto
          130 0 105 37 80 76 80 75 40 104 0 131 rrcurveto
          1044 vlineto
          0 28 -8 22 -16 17 -16 17 -21 9 -25 0 -51 0 -29 -24 -8 -49 -4 -23 -7 -12 -12 0 -7 0 -7 4 -7 7 -61 64 -82 32 -101 0 -128 0 -98 -48 -71 -95 -70 -96 -36 -145 -2 -195 rrcurveto
          0 -158 37 -128 73 -97 73 -98 99 -49 125 0 86 0 71 23 56 46 14 11 12 6 11 0 12 0 8 -3 4 -7 4 -6 2 -10 0 -12 rrcurveto
          -2 -133 rlineto
          0 -48 -21 -44 -42 -40 -42 -39 -63 -20 -85 -2 -64 0 -52 10 -41 18 -41 19 -41 29 -41 40 -16 15 -19 7 -21 0 -23 0 -23 -13 -22 -27 -12 -15 -6 -17 0 -18 0 -21 7 -18 15 -18 rrcurveto
          99 -109 133 -54 168 0 rrcurveto
          endchar
        </CharString>
        <CharString name="grave">
          0 756 970 rmoveto
          23 0 23 9 16 17 18 18 9 24 0 23 0 22 -9 24 -18 18 rrcurveto
          -308 308 rlineto
          -18 18 -24 9 -22 0 -23 0 -24 -9 -17 -18 -18 -16 -9 -23 0 -23 0 -23 10 -25 18 -18 rrcurveto
          307 -307 rlineto
          18 -18 25 -10 23 0 rrcurveto
          endchar
        </CharString>
        <CharString name="greater">
          0 255 97 rmoveto
          13 0 15 3 11 6 rrcurveto
          692 363 rlineto
          32 16 18 30 0 35 0 33 -18 32 -32 16 rrcurveto
          -690 355 rlineto
          -13 7 -14 3 -14 0 -46 0 -43 -41 0 -48 0 -34 21 -33 31 -16 rrcurveto
          472 -250 rlineto
          12 -7 5 -7 0 -10 0 -11 -5 -9 -11 -6 rrcurveto
          -475 -254 rlineto
          -31 -16 -21 -33 0 -34 0 -48 43 -42 48 0 rrcurveto
          endchar
        </CharString>
        <CharString name="greater_greater">
          0 105 97 rmoveto
          13 0 15 3 11 6 rrcurveto
          692 363 rlineto
          32 16 18 30 0 35 0 33 -18 32 -32 16 rrcurveto
          -690 355 rlineto
          -13 7 -14 3 -14 0 -46 0 -43 -41 0 -48 0 -34 21 -33 31 -16 rrcurveto
          472 -250 rlineto
          12 -7 5 -7 0 -10 0 -11 -5 -9 -11 -6 rrcurveto
          -475 -254 rlineto
          -31 -16 -21 -33 0 -34 0 -48 43 -42 48 0 rrcurveto
          -900 hmoveto
          13 0 15 3 11 6 rrcurveto
          692 363 rlineto
          32 16 18 30 0 35 0 33 -18 32 -32 16 rrcurveto
          -690 355 rlineto
          -13 7 -14 3 -14 0 -46 0 -43 -41 0 -48 0 -34 21 -33 31 -16 rrcurveto
          472 -250 rlineto
          12 -7 5 -7 0 -10 0 -11 -5 -9 -11 -6 rrcurveto
          -475 -254 rlineto
          -31 -16 -21 -33 0 -34 0 -48 43 -42 48 0 rrcurveto
          endchar
        </CharString>
        <CharString name="greater_greater_greater">
          0 -45 97 rmoveto
          13 0 15 3 11 6 rrcurveto
          692 363 rlineto
          32 16 18 30 0 35 0 33 -18 32 -32 16 rrcurveto
          -690 355 rlineto
          -13 7 -14 3 -14 0 -46 0 -43 -41 0 -48 0 -34 21 -33 31 -16 rrcurveto
          472 -250 rlineto
          12 -7 5 -7 0 -10 0 -11 -5 -9 -11 -6 rrcurveto
          -475 -254 rlineto
          -31 -16 -21 -33 0 -34 0 -48 43 -42 48 0 rrcurveto
          -900 hmoveto
          13 0 15 3 11 6 rrcurveto
          692 363 rlineto
          32 16 18 30 0 35 0 33 -18 32 -32 16 rrcurveto
          -690 355 rlineto
          -13 7 -14 3 -14 0 -46 0 -43 -41 0 -48 0 -34 21 -33 31 -16 rrcurveto
          472 -250 rlineto
          12 -7 5 -7 0 -10 0 -11 -5 -9 -11 -6 rrcurveto
          -475 -254 rlineto
          -31 -16 -21 -33 0 -34 0 -48 43 -42 48 0 rrcurveto
          -900 hmoveto
          13 0 15 3 11 6 rrcurveto
          692 363 rlineto
          32 16 18 30 0 35 0 33 -18 32 -32 16 rrcurveto
          -690 355 rlineto
          -13 7 -14 3 -14 0 -46 0 -43 -41 0 -48 0 -34 21 -33 31 -16 rrcurveto
          472 -250 rlineto
          12 -7 5 -7 0 -10 0 -11 -5 -9 -11 -6 rrcurveto
          -475 -254 rlineto
          -31 -16 -21 -33 0 -34 0 -48 43 -42 48 0 rrcurveto
          endchar
        </CharString>
        <CharString name="h">
          0 175 1434 rmoveto
          -1370 vlineto
          0 -28 9 -23 17 -17 17 -17 22 -9 27 0 29 0 22 9 15 17 15 17 7 23 0 28 rrcurveto
          548 vlineto
          0 89 37 70 73 51 60 39 60 20 60 1 146 0 74 -83 2 -166 rrcurveto
          -569 vlineto
          0 -28 9 -23 17 -17 17 -17 22 -9 27 0 29 0 22 9 15 17 14 17 8 23 0 28 rrcurveto
          581 vlineto
          0 156 -32 112 -64 68 -59 66 -93 33 -129 0 -97 -1 -92 -47 -87 -91 -8 -8 -7 -4 -5 0 -10 0 -5 8 0 16 rrcurveto
          481 vlineto
          0 27 -9 23 -18 19 -19 18 -21 9 -25 0 -24 0 -22 -9 -18 -18 -19 -19 -9 -23 0 -27 rrcurveto
          endchar
        </CharString>
        <CharString name="hyphenminus">
          0 1030 550 rmoveto
          0 49 -41 41 -49 0 rrcurveto
          -680 hlineto
          -50 0 -40 -41 0 -49 0 -50 40 -40 50 0 rrcurveto
          680 hlineto
          49 0 41 40 0 50 rrcurveto
          endchar
        </CharString>
        <CharString name="i">
          0 642 1235 rmoveto
          39 0 34 14 28 29 28 29 14 34 0 41 0 41 -14 35 -28 29 -28 29 -34 14 -39 0 -41 0 -34 -14 -28 -29 -28 -29 -13 -35 0 -41 0 -41 13 -34 28 -29 28 -29 34 -14 41 0 rrcurveto
          373 -1238 rmoveto
          22 0 21 9 19 17 19 16 10 22 0 27 0 30 -10 23 -19 16 -19 17 -21 8 -22 0 rrcurveto
          -242 hlineto
          -28 0 -14 15 0 29 rrcurveto
          636 vlineto
          0 52 -18 44 -36 37 -36 37 -44 18 -50 0 rrcurveto
          -283 hlineto
          -23 0 -21 -9 -17 -17 -17 -16 -9 -23 0 -28 0 -27 9 -22 18 -17 17 -17 21 -9 22 0 rrcurveto
          199 hlineto
          24 0 21 -8 18 -17 17 -17 9 -22 0 -27 rrcurveto
          -548 vlineto
          0 -29 -15 -15 -29 0 rrcurveto
          -242 hlineto
          -21 0 -20 -8 -18 -17 -19 -16 -9 -23 0 -30 0 -27 9 -22 19 -17 18 -16 20 -9 21 0 rrcurveto
          endchar
        </CharString>
        <CharString name="j">
          0 697 1239 rmoveto
          38 0 33 15 27 28 28 28 14 35 0 41 0 39 -14 34 -28 29 -27 28 -33 14 -38 0 -40 0 -33 -14 -27 -28 -27 -29 -14 -34 0 -39 0 -41 14 -35 27 -28 27 -28 33 -15 40 0 rrcurveto
          -375 -1719 rmoveto
          182 0 126 35 71 71 70 70 35 101 0 133 rrcurveto
          931 vlineto
          0 51 -18 44 -35 37 -35 38 -43 19 -48 0 rrcurveto
          -310 hlineto
          -25 0 -20 -10 -18 -18 -17 -19 -9 -22 0 -25 0 -26 9 -21 17 -18 18 -19 21 -9 24 0 rrcurveto
          225 hlineto
          26 0 20 -8 15 -17 15 -17 8 -20 0 -24 rrcurveto
          -828 vlineto
          0 -166 -99 -83 -199 0 rrcurveto
          -126 2 rlineto
          -19 0 -17 -8 -16 -17 -16 -17 -8 -21 0 -25 0 -51 24 -29 50 -8 22 -4 41 -2 59 0 rrcurveto
          endchar
        </CharString>
        <CharString name="k">
          0 987 -30 rmoveto
          64 2 32 30 0 59 0 21 -5 18 -10 14 rrcurveto
          -318 460 rlineto
          -10 14 -5 14 0 13 0 19 9 18 16 18 rrcurveto
          229 254 rlineto
          17 18 9 22 0 26 0 27 -9 21 -18 17 -19 17 -22 8 -28 0 -27 0 -25 -13 -22 -25 rrcurveto
          -392 -421 rlineto
          -8 -8 -11 -4 -14 0 -25 0 -12 14 0 27 rrcurveto
          784 vlineto
          0 26 -9 23 -17 19 -18 18 -22 10 -27 0 -24 0 -20 -9 -18 -18 -17 -18 -9 -23 0 -26 rrcurveto
          -1366 vlineto
          0 -29 9 -24 16 -19 17 -19 22 -9 28 0 27 0 21 10 16 19 17 20 8 23 0 28 rrcurveto
          148 vlineto
          0 35 13 32 28 28 rrcurveto
          130 138 rlineto
          7 7 11 3 15 0 11 0 10 -6 10 -14 rrcurveto
          283 -425 rlineto
          20 -31 28 -15 38 0 rrcurveto
          endchar
        </CharString>
        <CharString name="l">
          0 855 -30 rmoveto
          107 1 72 25 38 47 14 17 6 20 0 23 0 20 -4 17 -10 13 -9 13 -11 10 -14 5 -13 6 -12 2 -10 0 -9 0 -11 -3 -12 -7 -33 -19 -34 -10 -36 0 -154 0 -78 96 0 192 rrcurveto
          885 vlineto
          0 51 -21 48 -43 43 -42 43 -47 22 -51 0 rrcurveto
          -227 hlineto
          -24 0 -21 -9 -18 -16 -18 -17 -9 -23 0 -29 0 -27 9 -22 18 -16 18 -17 21 -8 24 0 rrcurveto
          143 hlineto
          29 0 26 -12 21 -22 21 -23 11 -25 0 -28 rrcurveto
          -834 vlineto
          1 -288 131 -144 261 0 rrcurveto
          endchar
        </CharString>
        <CharString name="left_arrow_single">
          0 -581 428 rmoveto
          -8 0 -7 2 -7 7 rrcurveto
          -89 88 rlineto
          -7 6 -2 8 0 8 0 8 3 7 6 6 rrcurveto
          89 89 rlineto
          6 6 8 3 8 0 8 0 8 -3 6 -6 rrcurveto
          88 -89 rlineto
          7 -7 3 -6 0 -8 0 -8 -3 -8 -7 -6 rrcurveto
          -88 -88 rlineto
          -6 -6 -8 -3 -8 0 rrcurveto
          198 -427 rmoveto
          51 0 39 39 0 51 0 22 -9 23 -17 18 rrcurveto
          -113 113 rlineto
          -6 5 -3 9 0 8 0 8 2 6 7 8 rrcurveto
          113 117 rlineto
          18 17 35 15 25 0 rrcurveto
          1181 hlineto
          49 0 41 40 0 50 0 49 -41 41 -49 0 rrcurveto
          -1180 hlineto
          -25 0 -35 14 -18 18 rrcurveto
          -114 114 rlineto
          -6 5 -3 9 0 8 0 7 3 8 6 6 rrcurveto
          113 113 rlineto
          17 18 9 23 0 23 0 53 -43 38 -47 0 -22 0 -23 -9 -18 -17 rrcurveto
          -457 -459 rlineto
          -18 -19 -9 -21 0 -24 0 -23 9 -24 18 -18 rrcurveto
          457 -457 rlineto
          18 -18 23 -7 22 0 rrcurveto
          endchar
        </CharString>
        <CharString name="left_right_arrow_double">
          0 354 840 rmoveto
          -1908 hlineto
          -7 0 -7 3 -5 6 -6 5 -3 7 0 7 0 4 1 4 1 3 1 3 2 4 3 3 rrcurveto
          55 54 rlineto
          17 21 9 21 0 22 0 25 -9 22 -17 17 -18 17 -21 9 -25 0 -22 0 -21 -9 -20 -17 rrcurveto
          -457 -458 rlineto
          -18 -19 -9 -21 0 -24 0 -24 9 -22 18 -19 rrcurveto
          457 -457 rlineto
          20 -17 21 -9 22 0 25 0 21 9 18 18 17 17 9 21 0 25 0 24 -9 21 -17 18 rrcurveto
          -58 58 rlineto
          -5 6 -3 6 0 7 0 8 3 7 7 6 6 6 6 3 7 0 rrcurveto
          1912 hlineto
          7 0 7 -3 6 -6 6 -6 3 -7 0 -8 0 -7 -3 -6 -5 -6 rrcurveto
          -58 -58 rlineto
          -17 -18 -9 -21 0 -24 0 -25 9 -21 18 -17 17 -18 21 -9 25 0 22 0 21 9 20 17 rrcurveto
          457 457 rlineto
          18 19 9 22 0 24 0 24 -9 21 -18 19 rrcurveto
          -457 458 rlineto
          -20 17 -21 9 -22 0 -25 0 -21 -9 -17 -17 -18 -17 -9 -22 0 -25 0 -22 9 -21 17 -21 rrcurveto
          55 -54 rlineto
          3 -3 3 -4 1 -3 1 -3 0 -4 0 -4 0 -7 -3 -7 -5 -5 -6 -6 -7 -3 -7 0 rrcurveto
          50 -399 rmoveto
          -2008 hlineto
          -24 0 -22 -9 -19 -18 rrcurveto
          -32 -33 rlineto
          -7 -6 -7 -3 -8 0 -8 0 -7 3 -7 6 rrcurveto
          -147 146 rlineto
          -6 7 -3 7 0 8 0 8 3 7 6 6 rrcurveto
          149 149 rlineto
          7 6 7 3 8 0 8 0 7 -3 6 -6 rrcurveto
          33 -33 rlineto
          20 -17 21 -9 23 0 rrcurveto
          2006 hlineto
          23 0 22 9 19 17 rrcurveto
          33 33 rlineto
          6 6 7 3 8 0 8 0 7 -3 7 -6 rrcurveto
          149 -149 rlineto
          6 -6 3 -7 0 -8 0 -8 -3 -7 -6 -7 rrcurveto
          -147 -146 rlineto
          -7 -6 -7 -3 -8 0 -8 0 -7 3 -7 6 rrcurveto
          -32 33 rlineto
          -19 18 -22 9 -24 0 rrcurveto
          endchar
        </CharString>
        <CharString name="left_right_arrow_double_long">
          0 354 840 rmoveto
          -3108 hlineto
          -7 0 -7 3 -5 6 -6 5 -3 7 0 7 0 4 1 4 1 3 1 3 2 4 3 3 rrcurveto
          55 54 rlineto
          17 21 9 21 0 22 0 25 -9 22 -17 17 -18 17 -21 9 -25 0 -22 0 -21 -9 -20 -17 rrcurveto
          -457 -458 rlineto
          -18 -19 -9 -21 0 -24 0 -24 9 -22 18 -19 rrcurveto
          457 -457 rlineto
          20 -17 21 -9 22 0 25 0 21 9 18 18 17 17 9 21 0 25 0 24 -9 21 -17 18 rrcurveto
          -58 58 rlineto
          -5 6 -3 6 0 7 0 8 3 7 7 6 6 6 6 3 7 0 rrcurveto
          3112 hlineto
          7 0 7 -3 6 -6 6 -6 3 -7 0 -8 0 -7 -3 -6 -5 -6 rrcurveto
          -58 -58 rlineto
          -17 -18 -9 -21 0 -24 0 -25 9 -21 18 -17 17 -18 21 -9 25 0 22 0 21 9 20 17 rrcurveto
          457 457 rlineto
          18 19 9 22 0 24 0 24 -9 21 -18 19 rrcurveto
          -457 458 rlineto
          -20 17 -21 9 -22 0 -25 0 -21 -9 -17 -17 -18 -17 -9 -22 0 -25 0 -22 9 -21 17 -21 rrcurveto
          55 -54 rlineto
          3 -3 3 -4 1 -3 1 -3 0 -4 0 -4 0 -7 -3 -7 -5 -5 -6 -6 -7 -3 -7 0 rrcurveto
          50 -399 rmoveto
          -3208 hlineto
          -24 0 -22 -9 -19 -18 rrcurveto
          -32 -33 rlineto
          -7 -6 -7 -3 -8 0 -8 0 -7 3 -7 6 rrcurveto
          -147 146 rlineto
          -6 7 -3 7 0 8 0 8 3 7 6 6 rrcurveto
          149 149 rlineto
          7 6 7 3 8 0 8 0 7 -3 6 -6 rrcurveto
          33 -33 rlineto
          20 -17 21 -9 23 0 rrcurveto
          3206 hlineto
          23 0 22 9 19 17 rrcurveto
          33 33 rlineto
          6 6 7 3 8 0 8 0 7 -3 7 -6 rrcurveto
          149 -149 rlineto
          6 -6 3 -7 0 -8 0 -8 -3 -7 -6 -7 rrcurveto
          -147 -146 rlineto
          -7 -6 -7 -3 -8 0 -8 0 -7 3 -7 6 rrcurveto
          -32 33 rlineto
          -19 18 -22 9 -24 0 rrcurveto
          endchar
        </CharString>
        <CharString name="left_right_arrow_single">
          0 -1781 428 rmoveto
          -8 0 -7 2 -7 7 rrcurveto
          -89 88 rlineto
          -7 6 -2 8 0 8 0 8 3 7 6 6 rrcurveto
          89 89 rlineto
          6 6 8 3 8 0 8 0 8 -3 6 -6 rrcurveto
          88 -89 rlineto
          7 -7 3 -6 0 -8 0 -8 -3 -8 -7 -6 rrcurveto
          -88 -88 rlineto
          -6 -6 -8 -3 -8 0 rrcurveto
          198 -427 rmoveto
          51 0 39 39 0 51 0 22 -9 23 -17 18 rrcurveto
          -113 113 rlineto
          -6 5 -3 9 0 8 0 8 2 6 7 8 rrcurveto
          113 117 rlineto
          18 17 35 15 25 0 rrcurveto
          2381 hlineto
          49 0 41 40 0 50 0 49 -41 41 -49 0 rrcurveto
          -2380 hlineto
          -25 0 -35 14 -18 18 rrcurveto
          -114 114 rlineto
          -6 5 -3 9 0 8 0 7 3 8 6 6 rrcurveto
          113 113 rlineto
          17 18 9 23 0 23 0 53 -43 38 -47 0 -22 0 -23 -9 -18 -17 rrcurveto
          -457 -459 rlineto
          -18 -19 -9 -21 0 -24 0 -23 9 -24 18 -18 rrcurveto
          457 -457 rlineto
          18 -18 23 -7 22 0 rrcurveto
          endchar
        </CharString>
        <CharString name="left_right_arrow_single_long">
          0 581 428 rmoveto
          -8 0 -7 3 -7 6 rrcurveto
          -89 88 rlineto
          -6 7 -3 7 0 8 0 8 3 7 6 6 rrcurveto
          89 89 rlineto
          7 6 7 3 8 0 8 0 7 -3 7 -6 rrcurveto
          88 -89 rlineto
          7 -6 3 -7 0 -8 0 -8 -3 -7 -7 -7 rrcurveto
          -88 -88 rlineto
          -7 -6 -7 -3 -8 0 rrcurveto
          -3562 hmoveto
          -8 0 -7 3 -7 6 rrcurveto
          -88 88 rlineto
          -7 7 -3 7 0 8 0 8 3 7 7 6 rrcurveto
          88 89 rlineto
          7 6 7 3 8 0 8 0 7 -3 7 -6 rrcurveto
          89 -89 rlineto
          6 -6 3 -7 0 -8 0 -8 -3 -7 -6 -7 rrcurveto
          -89 -88 rlineto
          -7 -6 -7 -3 -8 0 rrcurveto
          3221 212 rmoveto
          -2880 hlineto
          -13 0 -13 3 -15 7 -15 6 -13 7 -9 9 rrcurveto
          -114 114 rlineto
          -6 7 -3 7 0 8 0 7 3 7 6 7 rrcurveto
          113 113 rlineto
          17 20 9 21 0 23 0 27 -9 22 -18 17 -19 17 -21 8 -23 0 -22 0 -21 -9 -20 -17 rrcurveto
          -457 -459 rlineto
          -18 -19 -9 -21 0 -24 0 -23 9 -21 18 -21 rrcurveto
          457 -457 rlineto
          20 -17 21 -8 22 0 25 0 22 9 17 17 17 17 9 22 0 25 0 22 -9 21 -17 20 rrcurveto
          -113 113 rlineto
          -6 7 -3 7 0 8 0 8 3 7 6 7 rrcurveto
          113 117 rlineto
          9 9 13 7 15 7 15 6 14 3 12 0 rrcurveto
          2881 hlineto
          13 0 14 -3 15 -6 15 -7 12 -7 9 -9 rrcurveto
          114 -117 rlineto
          6 -7 3 -7 0 -8 0 -8 -3 -7 -6 -7 rrcurveto
          -113 -113 rlineto
          -17 -20 -9 -21 0 -22 0 -25 9 -22 17 -17 17 -17 22 -9 25 0 22 0 21 8 20 17 rrcurveto
          457 457 rlineto
          18 21 9 21 0 23 0 24 -9 21 -18 19 rrcurveto
          -457 459 rlineto
          -20 17 -21 9 -22 0 -23 0 -21 -8 -18 -17 -19 -17 -9 -22 0 -27 0 -23 9 -21 17 -20 rrcurveto
          113 -113 rlineto
          6 -7 3 -7 0 -7 0 -8 -3 -7 -6 -7 rrcurveto
          -114 -114 rlineto
          -9 -9 -12 -7 -15 -6 -15 -7 -14 -3 -13 0 rrcurveto
          endchar
        </CharString>
        <CharString name="less">
          0 946 97 rmoveto
          48 0 42 42 0 48 0 34 -20 33 -31 16 rrcurveto
          -475 254 rlineto
          -11 6 -5 9 0 11 0 10 5 7 11 7 rrcurveto
          473 250 rlineto
          31 16 20 33 0 34 0 48 -42 41 -46 0 -14 0 -14 -3 -13 -7 rrcurveto
          -691 -355 rlineto
          -31 -16 -19 -32 0 -33 0 -35 19 -30 31 -16 rrcurveto
          692 -363 rlineto
          12 -6 15 -3 13 0 rrcurveto
          endchar
        </CharString>
        <CharString name="less_greater">
          0 1 156 rmoveto
          -691 368 rlineto
          -11 5 -5 9 0 12 0 11 5 8 11 5 rrcurveto
          690 363 690 -363 rlineto
          11 -6 6 -8 0 -10 0 -12 -5 -9 -11 -5 rrcurveto
          -741 589 rmoveto
          -936 -482 rlineto
          -16 -8 -12 -11 -9 -15 -9 -15 -4 -15 0 -17 0 -35 17 -27 33 -19 rrcurveto
          929 -488 rlineto
          24 -13 18 -7 10 0 rrcurveto
          10 hlineto
          12 0 18 7 24 14 rrcurveto
          927 487 rlineto
          33 18 17 27 0 36 0 17 -4 15 -9 15 -9 15 -12 11 -16 8 rrcurveto
          -936 483 rlineto
          -21 10 -15 5 -8 0 rrcurveto
          -11 hlineto
          -9 0 -15 -5 -21 -11 rrcurveto
          endchar
        </CharString>
        <CharString name="less_less">
          0 796 97 rmoveto
          48 0 42 42 0 48 0 34 -20 33 -31 16 rrcurveto
          -475 254 rlineto
          -11 6 -5 9 0 11 0 10 5 7 11 7 rrcurveto
          473 250 rlineto
          31 16 20 33 0 34 0 48 -42 41 -46 0 -14 0 -14 -3 -13 -7 rrcurveto
          -691 -355 rlineto
          -31 -16 -19 -32 0 -33 0 -35 19 -30 31 -16 rrcurveto
          692 -363 rlineto
          12 -6 15 -3 13 0 rrcurveto
          -900 hmoveto
          48 0 42 42 0 48 0 34 -20 33 -31 16 rrcurveto
          -475 254 rlineto
          -11 6 -5 9 0 11 0 10 5 7 11 7 rrcurveto
          473 250 rlineto
          31 16 20 33 0 34 0 48 -42 41 -46 0 -14 0 -14 -3 -13 -7 rrcurveto
          -691 -355 rlineto
          -31 -16 -19 -32 0 -33 0 -35 19 -30 31 -16 rrcurveto
          692 -363 rlineto
          12 -6 15 -3 13 0 rrcurveto
          endchar
        </CharString>
        <CharString name="less_less_less">
          0 -1154 97 rmoveto
          48 0 42 42 0 48 0 34 -20 33 -31 16 rrcurveto
          -475 254 rlineto
          -11 6 -5 9 0 11 0 10 5 7 11 7 rrcurveto
          473 250 rlineto
          31 16 20 33 0 34 0 48 -42 41 -46 0 -14 0 -14 -3 -13 -7 rrcurveto
          -691 -355 rlineto
          -31 -16 -19 -32 0 -33 0 -35 19 -30 31 -16 rrcurveto
          692 -363 rlineto
          12 -6 15 -3 13 0 rrcurveto
          1800 hmoveto
          48 0 42 42 0 48 0 34 -20 33 -31 16 rrcurveto
          -475 254 rlineto
          -11 6 -5 9 0 11 0 10 5 7 11 7 rrcurveto
          473 250 rlineto
          31 16 20 33 0 34 0 48 -42 41 -46 0 -14 0 -14 -3 -13 -7 rrcurveto
          -691 -355 rlineto
          -31 -16 -19 -32 0 -33 0 -35 19 -30 31 -16 rrcurveto
          692 -363 rlineto
          12 -6 15 -3 13 0 rrcurveto
          -900 hmoveto
          48 0 42 42 0 48 0 34 -20 33 -31 16 rrcurveto
          -475 254 rlineto
          -11 6 -5 9 0 11 0 10 5 7 11 7 rrcurveto
          473 250 rlineto
          31 16 20 33 0 34 0 48 -42 41 -46 0 -14 0 -14 -3 -13 -7 rrcurveto
          -691 -355 rlineto
          -31 -16 -19 -32 0 -33 0 -35 19 -30 31 -16 rrcurveto
          692 -363 rlineto
          12 -6 15 -3 13 0 rrcurveto
          endchar
        </CharString>
        <CharString name="less_slash">
          0 4 -51 rmoveto
          -78 -175 rlineto
          -5 -13 -3 -12 0 -11 0 -17 5 -17 10 -15 9 -15 13 -12 17 -7 13 -5 12 -3 11 0 17 0 16 5 15 10 15 9 12 13 7 17 rrcurveto
          788 1776 rlineto
          5 13 3 12 0 12 0 17 -5 16 -9 15 -9 15 -13 11 -17 7 -13 5 -12 3 -12 0 -17 0 -16 -5 -15 -9 -15 -9 -12 -13 -7 -17 rrcurveto
          -636 -1434 -768 408 rlineto
          -11 7 -5 8 0 11 0 9 5 8 11 7 rrcurveto
          473 250 rlineto
          34 21 17 28 0 34 0 24 -9 21 -17 18 -18 17 -21 9 -23 0 -14 0 -14 -3 -13 -7 rrcurveto
          -691 -355 rlineto
          -16 -8 -12 -11 -9 -15 -9 -15 -4 -15 0 -17 0 -35 17 -27 33 -19 rrcurveto
          endchar
        </CharString>
        <CharString name="less_slash_greater">
          0 -996 -51 rmoveto
          -78 -175 rlineto
          -5 -13 -3 -12 0 -11 0 -17 5 -17 10 -15 9 -15 13 -12 17 -7 13 -5 12 -3 11 0 17 0 16 5 15 10 15 9 12 13 7 17 rrcurveto
          579 1305 821 -432 rlineto
          11 -7 6 -8 0 -9 0 -11 -5 -8 -11 -7 rrcurveto
          -475 -254 rlineto
          -35 -21 -17 -28 0 -34 0 -24 9 -21 19 -18 18 -18 21 -9 24 0 13 0 13 3 13 6 rrcurveto
          692 363 rlineto
          33 19 17 27 0 35 0 17 -4 15 -9 15 -9 15 -12 11 -16 8 rrcurveto
          -1044 540 136 306 rlineto
          5 13 3 12 0 12 0 17 -5 16 -9 15 -9 15 -13 11 -17 7 -13 5 -12 3 -12 0 -17 0 -16 -5 -15 -9 -15 -9 -12 -13 -7 -17 rrcurveto
          -636 -1434 -768 408 rlineto
          -11 7 -5 8 0 11 0 9 5 8 11 7 rrcurveto
          473 250 rlineto
          34 21 17 28 0 34 0 24 -9 21 -17 18 -18 17 -21 9 -23 0 -14 0 -14 -3 -13 -7 rrcurveto
          -691 -355 rlineto
          -16 -8 -12 -11 -9 -15 -9 -15 -4 -15 0 -17 0 -35 17 -27 33 -19 rrcurveto
          endchar
        </CharString>
        <CharString name="m">
          0 961 -31 rmoveto
          50 0 40 40 0 50 rrcurveto
          767 vlineto
          0 173 -88 82 -128 0 -46 0 -38 -10 -29 -22 -31 -21 -11 -18 -20 -46 -1 -4 -4 -8 -4 0 -4 0 -1 6 -1 6 -15 75 -45 42 -107 0 -58 0 -56 -24 -30 -74 -2 -5 -4 -18 -7 0 rrcurveto
          -7 0 1 21 -3 16 -4 45 -27 39 -48 0 -45 0 -39 -39 0 -45 rrcurveto
          -938 vlineto
          0 -50 41 -40 49 0 50 0 40 40 0 50 rrcurveto
          731 vlineto
          0 67 44 48 46 0 46 0 46 -33 0 -65 rrcurveto
          -748 vlineto
          0 -50 42 -40 47 0 50 0 41 40 0 50 rrcurveto
          745 vlineto
          0 50 37 49 50 0 59 0 34 -36 0 -65 rrcurveto
          -743 vlineto
          0 -48 41 -42 49 0 rrcurveto
          endchar
        </CharString>
        <CharString name="n">
          0 165 984 rmoveto
          -920 vlineto
          0 -28 9 -23 17 -17 17 -17 22 -9 27 0 29 0 22 9 15 17 15 17 7 23 0 28 rrcurveto
          548 vlineto
          0 89 37 70 73 51 60 39 60 20 60 1 146 0 74 -83 2 -166 rrcurveto
          -569 vlineto
          0 -28 9 -23 17 -17 17 -17 22 -9 27 0 29 0 22 9 15 17 14 17 8 23 0 28 rrcurveto
          581 vlineto
          0 156 -32 112 -64 68 -59 66 -93 33 -129 0 -97 -1 -92 -47 -87 -91 -8 -8 -7 -4 -5 0 -10 0 -5 8 0 16 rrcurveto
          31 vlineto
          0 27 -9 23 -18 19 -19 18 -21 9 -25 0 -24 0 -22 -9 -18 -18 -19 -19 -9 -23 0 -27 rrcurveto
          endchar
        </CharString>
        <CharString name="nine">
          0 601 1430 rmoveto
          -290 0 -150 -225 0 -284 0 -286 177 -125 223 0 96 0 94 34 56 39 4 3 4 1 5 0 11 0 7 -6 0 -19 rrcurveto
          -3 vlineto
          -1 -28 -10 -59 -38 -78 -38 -76 -71 -83 -99 -46 -69 -32 -73 -3 -113 -6 -47 -2 -39 -39 0 -49 0 -46 39 -42 47 0 rrcurveto
          39 hlineto
          455 0 220 322 0 470 0 471 -159 197 -280 0 rrcurveto
          -180 vmoveto
          170 0 84 -170 0 -140 0 -35 -4 -70 -29 -41 -65 -90 -101 -14 -81 0 -153 0 -81 93 0 161 0 162 90 144 170 0 rrcurveto
          endchar
        </CharString>
        <CharString name="numbersign">
          0 210 870 rmoveto
          180 -61 vlineto
          -48 0 -42 -41 0 -49 0 -48 42 -42 48 0 rrcurveto
          901 hmoveto
          48 0 42 42 0 49 0 48 -42 41 -48 0 rrcurveto
          -460 -180 hlineto
          20 -520 rmoveto
          180 -461 vlineto
          -48 0 -42 -42 0 -48 0 -48 42 -42 48 0 rrcurveto
          901 hmoveto
          48 0 42 42 0 48 0 48 -42 42 -48 0 rrcurveto
          -60 -180 hlineto
          -100 820 rmoveto
          171 vlineto
          0 48 -41 41 -49 0 -48 0 -42 -41 0 -48 rrcurveto
          -171 vlineto
          91 -1200 rmoveto
          48 0 41 42 0 48 rrcurveto
          690 -180 -690 vlineto
          0 -49 42 -41 49 0 rrcurveto
          -310 680 rmoveto
          691 vlineto
          0 48 -42 41 -49 0 -48 0 -42 -41 0 -48 rrcurveto
          -691 vlineto
          91 -680 rmoveto
          48 0 42 42 0 48 rrcurveto
          170 -181 -170 vlineto
          0 -49 42 -41 49 0 rrcurveto
          endchar
        </CharString>
        <CharString name="numbersign_braceleft">
          0 565 505 rmoveto
          23 0 12 14 0 27 0 14 -7 13 -14 12 rrcurveto
          -90 81 rlineto
          -11 10 -5 11 0 13 0 13 5 12 11 9 rrcurveto
          90 81 rlineto
          14 12 7 13 0 14 0 27 -12 14 -23 0 -6 0 -7 -1 -7 -3 rrcurveto
          -296 -136 rlineto
          -29 -9 -15 -19 0 -27 0 -27 15 -19 29 -9 rrcurveto
          296 -136 rlineto
          7 -3 7 -1 6 0 rrcurveto
          363 -768 rmoveto
          22 0 19 8 16 15 16 15 8 22 0 29 0 24 -8 20 -17 16 -16 16 -19 8 -21 0 rrcurveto
          -68 hlineto
          -76 0 -55 11 -33 23 -53 35 -26 49 0 60 0 43 3 27 0 104 0 35 -38 41 -34 17 rrcurveto
          -291 137 rlineto
          -51 25 -56 13 -56 0 rrcurveto
          -304 -180 543 hlineto
          47 0 58 -48 0 -47 0 0 -5 -141 0 -27 0 -125 42 -94 85 -65 25 -21 29 -15 32 -10 33 -10 29 -6 26 -1 26 -2 34 -1 43 0 rrcurveto
          -743 1133 rmoveto
          56 0 56 13 51 24 rrcurveto
          291 138 rlineto
          32 16 40 42 0 35 rrcurveto
          89 vlineto
          -2 40 -1 29 0 16 0 61 26 48 53 35 33 23 55 11 76 0 rrcurveto
          69 hlineto
          21 0 19 8 16 16 17 16 8 20 0 24 0 30 -8 22 -16 15 -16 15 -19 7 -22 0 rrcurveto
          -92 hlineto
          -43 0 -34 -1 -26 -1 -26 -2 -29 -6 -33 -10 -32 -10 -29 -15 -25 -21 -85 -64 -42 -95 0 -125 0 -27 1 -56 4 -83 rrcurveto
          -2 vlineto
          0 -47 -58 -48 -47 0 rrcurveto
          -943 -180 hlineto
          -380 hmoveto
          180 -61 vlineto
          -48 0 -42 -41 0 -49 0 -48 42 -42 48 0 rrcurveto
          461 -520 rmoveto
          180 -461 vlineto
          -48 0 -42 -42 0 -48 0 -48 42 -42 48 0 rrcurveto
          741 820 rmoveto
          171 vlineto
          0 48 -41 41 -49 0 -48 0 -42 -41 0 -48 rrcurveto
          -171 vlineto
          91 -1200 rmoveto
          48 0 41 42 0 48 rrcurveto
          690 -180 -690 vlineto
          0 -49 42 -41 49 0 rrcurveto
          -310 680 rmoveto
          691 vlineto
          0 48 -42 41 -49 0 -48 0 -42 -41 0 -48 rrcurveto
          -691 vlineto
          91 -680 rmoveto
          48 0 42 42 0 48 rrcurveto
          170 -181 -170 vlineto
          0 -49 42 -41 49 0 rrcurveto
          endchar
        </CharString>
        <CharString name="numbersign_bracketleft">
          0 -990 870 rmoveto
          180 -61 vlineto
          -24 0 -21 -9 -18 -18 -18 -18 -9 -21 0 -24 0 -24 9 -21 18 -18 18 -18 21 -9 24 0 rrcurveto
          252 -900 rmoveto
          24 0 21 9 18 18 18 18 9 21 0 24 rrcurveto
          170 -181 -170 vlineto
          0 -24 9 -21 18 -18 18 -18 21 -9 25 0 rrcurveto
          90 680 rmoveto
          691 vlineto
          0 24 -9 21 -18 18 -18 17 -21 9 -25 0 -24 0 -21 -9 -18 -17 -18 -18 -9 -21 0 -24 rrcurveto
          -691 vlineto
          491 -680 rmoveto
          24 0 21 9 18 18 17 18 9 21 0 24 rrcurveto
          690 -180 -690 vlineto
          0 -24 9 -21 18 -18 18 -18 21 -9 25 0 rrcurveto
          89 1200 rmoveto
          171 vlineto
          0 24 -9 21 -17 18 -18 17 -21 9 -25 0 -24 0 -21 -9 -18 -17 -18 -18 -9 -21 0 -24 rrcurveto
          -171 vlineto
          780 -300 rmoveto
          -340 -500 -180 500 -527 vlineto
          0 -25 9 -22 19 -18 18 -19 22 -9 26 0 rrcurveto
          456 hlineto
          25 0 21 9 18 18 17 17 9 21 0 25 0 25 -9 21 -17 18 -18 17 -21 9 -25 0 rrcurveto
          -337 hlineto
          -22 1 -11 11 0 21 rrcurveto
          1515 vlineto
          3 21 11 11 19 0 rrcurveto
          337 hlineto
          25 0 21 9 18 18 17 17 9 21 0 25 0 25 -9 21 -17 18 -18 17 -21 9 -25 0 rrcurveto
          -456 hlineto
          -26 0 -22 -9 -18 -18 -19 -19 -9 -22 0 -25 rrcurveto
          -527 -900 -180 vlineto
          20 -520 rmoveto
          180 -461 vlineto
          -24 0 -21 -9 -18 -18 -18 -18 -9 -21 0 -24 0 -24 9 -21 18 -18 18 -18 21 -9 24 0 rrcurveto
          endchar
        </CharString>
        <CharString name="numbersign_expand">
          0 210 870 rmoveto
          180 -61 vlineto
          -48 0 -42 -41 0 -49 0 -48 42 -42 48 0 rrcurveto
          1261 hmoveto
          180 -820 -180 vlineto
          20 -520 rmoveto
          180 -461 vlineto
          -48 0 -42 -42 0 -48 0 -48 42 -42 48 0 rrcurveto
          1661 hmoveto
          180 -820 -180 vlineto
          -100 820 rmoveto
          171 vlineto
          0 48 -41 41 -49 0 -48 0 -42 -41 0 -48 rrcurveto
          -171 vlineto
          91 -1200 rmoveto
          48 0 41 42 0 48 rrcurveto
          690 -180 -690 vlineto
          0 -49 42 -41 49 0 rrcurveto
          -310 680 rmoveto
          691 vlineto
          0 48 -42 41 -49 0 -48 0 -42 -41 0 -48 rrcurveto
          -691 vlineto
          91 -680 rmoveto
          48 0 42 42 0 48 rrcurveto
          170 -181 -170 vlineto
          0 -49 42 -41 49 0 rrcurveto
          endchar
        </CharString>
        <CharString name="numbersign_parenleft">
          0 -990 870 rmoveto
          180 -61 vlineto
          -24 0 -21 -9 -18 -18 -18 -18 -9 -21 0 -24 0 -24 9 -21 18 -18 18 -18 21 -9 24 0 rrcurveto
          252 -900 rmoveto
          24 0 21 9 18 18 18 18 9 21 0 24 rrcurveto
          170 -181 -170 vlineto
          0 -24 9 -21 18 -18 18 -18 21 -9 25 0 rrcurveto
          90 680 rmoveto
          691 vlineto
          0 24 -9 21 -18 18 -18 17 -21 9 -25 0 -24 0 -21 -9 -18 -17 -18 -18 -9 -21 0 -24 rrcurveto
          -691 vlineto
          491 -680 rmoveto
          24 0 21 9 18 18 17 18 9 21 0 24 rrcurveto
          690 -180 -690 vlineto
          0 -24 9 -21 18 -18 18 -18 21 -9 25 0 rrcurveto
          89 1200 rmoveto
          171 vlineto
          0 24 -9 21 -17 18 -18 17 -21 9 -25 0 -24 0 -21 -9 -18 -17 -18 -18 -9 -21 0 -24 rrcurveto
          -171 vlineto
          1356 -1540 rmoveto
          31 0 24 13 18 25 8 10 4 15 0 19 0 30 -12 24 -24 17 -118 80 -101 96 -83 111 -120 157 -61 182 -3 207 rrcurveto
          90 vlineto
          3 179 62 174 122 170 81 111 100 96 118 81 24 17 12 23 0 30 0 17 -4 15 -7 12 -17 26 -24 13 -33 0 -15 0 -12 -3 -10 -6 -155 -92 -127 -116 -99 -141 -61 -88 -45 -87 -30 -87 rrcurveto
          -922 -180 874 hlineto
          -10 -61 -5 -77 0 -94 0 -37 1 -36 3 -35 rrcurveto
          -463 -180 493 hlineto
          33 -131 55 -121 77 -111 99 -140 127 -116 155 -92 10 -6 12 -3 15 0 rrcurveto
          -1456 720 rmoveto
          180 -461 vlineto
          -24 0 -21 -9 -18 -18 -18 -18 -9 -21 0 -24 0 -24 9 -21 18 -18 18 -18 21 -9 24 0 rrcurveto
          endchar
        </CharString>
        <CharString name="o">
          0 600 -30 rmoveto
          94 0 78 22 61 43 62 43 51 62 40 82 39 81 20 102 0 122 0 120 -20 101 -39 81 -40 81 -51 62 -62 43 -61 43 -78 22 -94 0 -93 0 -78 -22 -62 -43 -63 -43 -51 -62 -39 -81 rrcurveto
          -40 -81 -19 -101 0 -120 0 -122 19 -102 40 -81 39 -82 51 -62 63 -43 62 -43 78 -22 93 0 rrcurveto
          186 vmoveto
          -86 0 -65 31 -43 62 -44 62 -21 92 0 122 0 120 21 91 44 64 43 63 65 31 86 0 85 0 65 -31 43 -63 44 -64 22 -91 0 -120 0 -123 -22 -93 -43 -61 -42 -61 -65 -31 -87 0 rrcurveto
          endchar
        </CharString>
        <CharString name="one">
          0 939 hmoveto
          50 0 40 43 0 47 0 50 -40 40 -50 0 rrcurveto
          -227 hlineto
          -14 0 -8 10 0 14 rrcurveto
          1098 vlineto
          0 71 -58 57 -71 0 -32 0 -32 -10 -23 -21 rrcurveto
          -278 -266 rlineto
          -21 -19 -8 -24 0 -25 0 -20 7 -22 14 -16 18 -21 26 -11 25 0 21 0 25 8 14 14 rrcurveto
          147 153 rlineto
          5 5 6 2 7 0 15 0 13 -11 0 -17 rrcurveto
          -925 vlineto
          0 -14 -10 -10 -14 0 rrcurveto
          -226 hlineto
          -49 0 -41 -40 0 -50 0 -47 41 -43 49 0 rrcurveto
          endchar
        </CharString>
        <CharString name="p">
          0 623 158 rmoveto
          -70 0 -59 25 -47 50 -52 56 -25 59 0 62 rrcurveto
          211 vlineto
          0 78 26 63 53 48 52 48 59 24 65 0 171 -3 86 -111 0 -218 0 -135 -26 -100 -51 -66 -47 -60 -61 -31 -74 0 rrcurveto
          -341 -646 rmoveto
          22 0 21 9 18 17 18 18 9 22 0 28 rrcurveto
          412 vlineto
          0 25 10 13 20 0 12 0 12 -6 13 -11 57 -46 71 -23 85 0 119 0 95 49 73 98 80 107 40 148 0 189 0 346 -135 173 -270 0 -100 0 -81 -38 -63 -77 -6 -7 -7 -4 -9 0 rrcurveto
          -11 0 -8 18 -3 36 -4 48 -28 24 -50 0 -26 0 -21 -8 -18 -17 -18 -17 -9 -22 0 -28 rrcurveto
          -1382 vlineto
          0 -28 9 -22 19 -18 18 -17 22 -9 24 0 rrcurveto
          endchar
        </CharString>
        <CharString name="parenleft">
          0 429 667 rmoveto
          90 vlineto
          3 179 62 174 122 170 81 111 100 96 118 81 24 16 12 24 0 30 0 17 -4 15 -7 12 -17 26 -25 13 -32 0 -15 0 -12 -3 -10 -6 -155 -92 -127 -117 -99 -140 -133 -190 -66 -210 0 -228 rrcurveto
          -46 vlineto
          0 -244 66 -217 133 -190 99 -140 127 -116 155 -92 10 -6 12 -3 15 0 31 0 24 13 18 25 8 10 4 15 0 19 0 30 -12 24 -24 17 -118 80 -101 96 -83 111 -120 157 -61 182 -3 207 rrcurveto
          endchar
        </CharString>
        <CharString name="parenright">
          0 771 667 rmoveto
          -3 -207 -61 -182 -120 -157 -83 -111 -101 -96 -118 -80 -24 -17 -12 -24 0 -30 0 -19 4 -15 8 -10 18 -25 24 -13 31 0 15 0 12 3 10 6 155 92 127 116 99 140 133 190 66 217 0 244 rrcurveto
          46 vlineto
          0 228 -66 210 -133 190 -99 140 -127 117 -155 92 -10 6 -12 3 -15 0 -32 0 -25 -13 -17 -26 -7 -12 -4 -15 0 -17 0 -30 12 -24 24 -16 118 -81 100 -96 81 -111 122 -170 62 -174 3 -179 rrcurveto
          endchar
        </CharString>
        <CharString name="percent">
          0 360 865 rmoveto
          -80 0 -40 66 0 130 0 150 40 75 80 0 80 0 40 -75 0 -150 0 -130 -40 -66 -80 0 rrcurveto
          -144 vmoveto
          91 0 72 32 50 65 51 64 26 81 0 98 0 124 -26 93 -50 61 -51 61 -71 30 -92 0 -191 0 -96 -123 -3 -246 0 -103 26 -82 52 -62 51 -62 71 -31 90 0 rrcurveto
          -183 -571 rmoveto
          28 0 32 13 20 23 rrcurveto
          256 316 rlineto
          11 13 8 21 0 19 0 50 -38 32 -47 0 -19 0 -21 -8 -16 -15 rrcurveto
          -292 -284 rlineto
          -25 -24 -3 -29 0 -26 0 -45 39 -56 67 0 rrcurveto
          577 613 rmoveto
          19 0 21 8 16 15 rrcurveto
          292 284 rlineto
          24 24 4 19 0 29 0 57 -40 50 -66 1 -28 0 -33 -12 -19 -24 rrcurveto
          -256 -316 rlineto
          -13 -16 -6 -19 0 -18 0 -49 34 -33 51 0 rrcurveto
          86 -639 rmoveto
          -80 0 -40 66 0 130 0 150 40 75 80 0 80 0 40 -75 0 -150 0 -130 -40 -66 -80 0 rrcurveto
          -144 vmoveto
          91 0 72 32 50 65 51 64 26 81 0 98 0 124 -26 93 -50 61 -51 61 -71 30 -92 0 -191 0 -96 -123 -3 -246 0 -103 26 -82 52 -62 51 -62 71 -31 90 0 rrcurveto
          endchar
        </CharString>
        <CharString name="period">
          0 604 -30 rmoveto
          43 0 37 16 31 32 31 33 16 38 0 45 0 46 -16 39 -31 32 -31 33 -37 16 -43 0 -46 0 -39 -16 -32 -33 -31 -32 -16 -39 0 -46 0 -45 16 -38 31 -33 32 -32 39 -16 46 0 rrcurveto
          endchar
        </CharString>
        <CharString name="period_period">
          0 404 -30 rmoveto
          43 0 37 16 31 32 31 33 16 38 0 45 0 46 -16 39 -31 32 -31 33 -37 16 -43 0 -46 0 -39 -16 -32 -33 -31 -32 -16 -39 0 -46 0 -45 16 -38 31 -33 32 -32 39 -16 46 0 rrcurveto
          -800 hmoveto
          43 0 37 16 31 32 31 33 16 38 0 45 0 46 -16 39 -31 32 -31 33 -37 16 -43 0 -46 0 -39 -16 -32 -33 -31 -32 -16 -39 0 -46 0 -45 16 -38 31 -33 32 -32 39 -16 46 0 rrcurveto
          endchar
        </CharString>
        <CharString name="period_period_period">
          0 104 -30 rmoveto
          43 0 37 16 31 32 31 33 16 38 0 45 0 46 -16 39 -31 32 -31 33 -37 16 -43 0 -46 0 -39 -16 -32 -33 -31 -32 -16 -39 0 -46 0 -45 16 -38 31 -33 32 -32 39 -16 46 0 rrcurveto
          -700 hmoveto
          43 0 37 16 31 32 31 33 16 38 0 45 0 46 -16 39 -31 32 -31 33 -37 16 -43 0 -46 0 -39 -16 -32 -33 -31 -32 -16 -39 0 -46 0 -45 16 -38 31 -33 32 -32 39 -16 46 0 rrcurveto
          -700 hmoveto
          43 0 37 16 31 32 31 33 16 38 0 45 0 46 -16 39 -31 32 -31 33 -37 16 -43 0 -46 0 -39 -16 -32 -33 -31 -32 -16 -39 0 -46 0 -45 16 -38 31 -33 32 -32 39 -16 46 0 rrcurveto
          endchar
        </CharString>
        <CharString name="placeholder">
          0 endchar
        </CharString>
        <CharString name="plus">
          0 690 640 rmoveto
          250 vlineto
          0 25 -9 21 -17 18 -18 17 -21 9 -25 0 -25 0 -21 -9 -17 -17 -18 -18 -9 -21 0 -25 rrcurveto
          -250 -250 vlineto
          -25 0 -21 -9 -17 -17 -18 -18 -9 -21 0 -25 0 -25 9 -21 18 -17 17 -18 21 -9 25 0 rrcurveto
          250 -250 hlineto
          0 -25 9 -21 18 -18 17 -18 21 -9 25 0 25 0 21 9 18 18 17 18 9 21 0 25 rrcurveto
          250 250 vlineto
          25 0 21 9 18 18 17 17 9 21 0 25 0 25 -9 21 -17 18 -18 17 -21 9 -25 0 rrcurveto
          endchar
        </CharString>
        <CharString name="plus_plus">
          0 390 640 rmoveto
          -780 250 hlineto
          0 25 -9 21 -17 18 -18 17 -21 9 -25 0 -25 0 -21 -9 -17 -17 -18 -18 -9 -21 0 -25 rrcurveto
          -250 -250 vlineto
          -25 0 -21 -9 -17 -17 -18 -18 -9 -21 0 -25 0 -25 9 -21 18 -17 17 -18 21 -9 25 0 rrcurveto
          250 -250 hlineto
          0 -25 9 -21 18 -18 17 -18 21 -9 25 0 25 0 21 9 18 18 17 18 9 21 0 25 rrcurveto
          250 780 -250 vlineto
          0 -25 9 -21 18 -18 17 -18 21 -9 25 0 25 0 21 9 18 18 17 18 9 21 0 25 rrcurveto
          250 250 vlineto
          25 0 21 9 18 18 17 17 9 21 0 25 0 25 -9 21 -17 18 -18 17 -21 9 -25 0 rrcurveto
          -250 250 hlineto
          0 25 -9 21 -17 18 -18 17 -21 9 -25 0 -25 0 -21 -9 -17 -17 -18 -18 -9 -21 0 -25 rrcurveto
          endchar
        </CharString>
        <CharString name="plus_plus_plus">
          0 270 640 rmoveto
          -780 250 hlineto
          0 25 -9 21 -17 18 -18 17 -21 9 -25 0 -25 0 -21 -9 -17 -17 -18 -18 -9 -21 0 -25 rrcurveto
          -250 -780 250 vlineto
          0 25 -9 21 -17 18 -18 17 -21 9 -25 0 -25 0 -21 -9 -17 -17 -18 -18 -9 -21 0 -25 rrcurveto
          -250 -250 vlineto
          -25 0 -21 -9 -17 -17 -18 -18 -9 -21 0 -25 0 -25 9 -21 18 -17 17 -18 21 -9 25 0 rrcurveto
          250 -250 hlineto
          0 -25 9 -21 18 -18 17 -18 21 -9 25 0 25 0 21 9 18 18 17 18 9 21 0 25 rrcurveto
          250 780 -250 vlineto
          0 -25 9 -21 18 -18 17 -18 21 -9 25 0 25 0 21 9 18 18 17 18 9 21 0 25 rrcurveto
          250 780 -250 vlineto
          0 -25 9 -21 18 -18 17 -18 21 -9 25 0 25 0 21 9 18 18 17 18 9 21 0 25 rrcurveto
          250 250 vlineto
          25 0 21 9 18 18 17 17 9 21 0 25 0 25 -9 21 -17 18 -18 17 -21 9 -25 0 rrcurveto
          -250 250 hlineto
          0 25 -9 21 -17 18 -18 17 -21 9 -25 0 -25 0 -21 -9 -17 -17 -18 -18 -9 -21 0 -25 rrcurveto
          endchar
        </CharString>
        <CharString name="q">
          0 578 161 rmoveto
          -87 0 -67 31 -47 60 -39 52 -19 102 0 151 0 218 86 111 171 4 65 0 59 -24 52 -48 53 -48 26 -63 0 -78 rrcurveto
          -213 vlineto
          0 -64 -26 -60 -51 -56 -47 -50 -59 -25 -70 0 rrcurveto
          341 -649 rmoveto
          24 0 21 9 19 17 18 18 10 22 0 28 rrcurveto
          1382 vlineto
          0 28 -9 22 -17 17 -18 17 -21 8 -25 0 -54 0 -29 -24 -2 -47 -2 -37 -7 -18 -13 0 -8 0 -7 4 -6 7 -63 77 -76 38 -90 0 -276 0 -138 -181 0 -363 0 -202 37 -145 74 -88 rrcurveto
          74 -88 97 -44 118 0 85 0 71 23 57 46 14 11 12 6 11 0 20 0 10 -13 0 -25 rrcurveto
          -411 vlineto
          0 -28 10 -22 18 -18 18 -17 20 -9 23 0 rrcurveto
          endchar
        </CharString>
        <CharString name="question">
          0 600 462 rmoveto
          54 0 31 29 7 58 8 59 43 68 80 76 91 88 46 117 0 143 0 111 -30 90 -61 67 -61 68 -91 34 -121 0 -173 0 -114 -74 -53 -147 -11 -27 -5 -24 0 -21 0 -62 29 -31 59 -1 rrcurveto
          17 0 15 4 14 9 14 9 16 22 17 37 40 83 57 41 76 0 131 -1 66 -65 2 -129 0 -82 -36 -73 -71 -64 -60 -57 -46 -49 -30 -40 -31 -41 -15 -51 0 -60 0 -76 32 -38 64 0 rrcurveto
          4 -492 rmoveto
          43 0 37 16 31 32 31 33 16 38 0 45 0 46 -16 39 -31 32 -31 33 -37 16 -43 0 -46 0 -39 -16 -32 -33 -31 -32 -16 -39 0 -46 0 -45 16 -38 31 -33 32 -32 39 -16 46 0 rrcurveto
          endchar
        </CharString>
        <CharString name="question_question">
          0 460 462 rmoveto
          54 0 31 29 7 58 8 59 43 68 80 76 91 88 46 117 0 143 0 111 -30 90 -61 67 -61 68 -91 34 -121 0 -173 0 -114 -74 -53 -147 -11 -27 -5 -24 0 -21 0 -62 29 -31 59 -1 rrcurveto
          17 0 15 4 14 9 14 9 16 22 17 37 40 83 57 41 76 0 131 -1 66 -65 2 -129 0 -82 -36 -73 -71 -64 -60 -57 -46 -49 -30 -40 -31 -41 -15 -51 0 -60 0 -76 32 -38 64 0 rrcurveto
          4 -492 rmoveto
          43 0 37 16 31 32 31 33 16 38 0 45 0 46 -16 39 -31 32 -31 33 -37 16 -43 0 -46 0 -39 -16 -32 -33 -31 -32 -16 -39 0 -46 0 -45 16 -38 31 -33 32 -32 39 -16 46 0 rrcurveto
          -924 492 rmoveto
          54 0 31 29 7 58 8 59 43 68 80 76 91 88 46 117 0 143 0 111 -30 90 -61 67 -61 68 -91 34 -121 0 -173 0 -114 -74 -53 -147 -11 -27 -5 -24 0 -21 0 -62 29 -31 59 -1 rrcurveto
          17 0 15 4 14 9 14 9 16 22 17 37 40 83 57 41 76 0 131 -1 66 -65 2 -129 0 -82 -36 -73 -71 -64 -60 -57 -46 -49 -30 -40 -31 -41 -15 -51 0 -60 0 -76 32 -38 64 0 rrcurveto
          4 -492 rmoveto
          43 0 37 16 31 32 31 33 16 38 0 45 0 46 -16 39 -31 32 -31 33 -37 16 -43 0 -46 0 -39 -16 -32 -33 -31 -32 -16 -39 0 -46 0 -45 16 -38 31 -33 32 -32 39 -16 46 0 rrcurveto
          endchar
        </CharString>
        <CharString name="quotedbl">
          0 441 970 rmoveto
          48 0 42 42 0 48 rrcurveto
          310 vlineto
          0 48 -42 42 -48 0 -48 0 -42 -42 0 -48 rrcurveto
          -310 vlineto
          0 -48 42 -42 48 0 rrcurveto
          319 hmoveto
          48 0 42 42 0 48 rrcurveto
          310 vlineto
          0 48 -42 42 -48 0 -48 0 -42 -42 0 -48 rrcurveto
          -310 vlineto
          0 -48 42 -42 48 0 rrcurveto
          endchar
        </CharString>
        <CharString name="quotesingle">
          0 601 970 rmoveto
          48 0 42 42 0 48 rrcurveto
          310 vlineto
          0 48 -42 42 -48 0 -48 0 -42 -42 0 -48 rrcurveto
          -310 vlineto
          0 -48 42 -42 48 0 rrcurveto
          endchar
        </CharString>
        <CharString name="r">
          0 302 -30 rmoveto
          24 0 21 9 17 16 18 17 8 22 0 27 rrcurveto
          519 vlineto
          0 81 39 72 79 65 78 64 72 32 67 0 92 0 54 -53 14 -106 4 -26 11 -20 17 -13 17 -12 21 -7 24 0 23 0 19 9 15 17 16 18 7 21 0 26 0 117 -29 84 -58 53 rrcurveto
          -58 52 -77 26 -95 0 -117 0 -104 -51 -91 -103 -9 -10 -7 -5 -5 0 -13 0 -6 10 0 20 rrcurveto
          49 vlineto
          0 25 -9 22 -18 17 -18 17 -22 9 -27 0 -24 0 -20 -9 -17 -17 -17 -17 -8 -22 0 -25 rrcurveto
          -929 vlineto
          0 -27 8 -22 17 -16 17 -17 22 -9 28 0 rrcurveto
          endchar
        </CharString>
        <CharString name="referencemark">
          0 600 1021 rmoveto
          35 0 29 12 25 25 25 25 12 30 0 35 0 37 -12 30 -24 24 -24 24 -30 12 -36 0 -34 0 -29 -12 -24 -24 -25 -24 -12 -30 0 -37 0 -35 13 -30 24 -25 25 -25 29 -12 33 0 rrcurveto
          -452 -866 rmoveto
          24 0 21 10 17 20 rrcurveto
          392 392 393 -393 rlineto
          19 -19 21 -9 22 0 22 0 20 10 19 19 19 19 10 21 0 23 0 21 -10 21 -20 19 rrcurveto
          -392 390 392 393 rlineto
          18 18 9 20 0 23 0 22 -9 20 -19 19 -18 18 -21 9 -23 0 -22 0 -20 -8 -17 -18 rrcurveto
          -393 -393 -392 393 rlineto
          -18 18 -21 8 -23 0 -21 0 -21 -9 -18 -18 -19 -19 -9 -20 0 -22 0 -23 10 -21 20 -18 rrcurveto
          389 -392 -389 -392 rlineto
          -20 -17 -10 -21 0 -24 0 -21 9 -20 19 -20 18 -19 20 -10 22 0 rrcurveto
          4 416 rmoveto
          35 0 29 13 25 24 24 25 13 30 0 35 0 37 -12 30 -25 24 -24 24 -29 12 -36 0 -33 0 -29 -12 -24 -24 -24 -24 -12 -30 0 -37 0 -35 12 -30 25 -25 24 -24 29 -13 32 0 rrcurveto
          894 hmoveto
          33 0 29 13 25 24 25 25 12 30 0 35 0 37 -12 30 -24 24 -25 24 -29 12 -34 0 -35 0 -29 -12 -24 -24 -24 -24 -12 -30 0 -37 0 -35 12 -30 25 -25 24 -24 29 -13 34 0 rrcurveto
          -446 -446 rmoveto
          35 0 29 12 25 25 25 24 12 30 0 34 0 36 -12 31 -24 24 -24 24 -30 12 -36 0 -34 0 -29 -12 -24 -24 -25 -24 -12 -31 0 -36 0 -34 13 -30 24 -24 25 -25 29 -12 33 0 rrcurveto
          endchar
        </CharString>
        <CharString name="right_arrow_double">
          0 383 1 rmoveto
          22 0 23 9 18 17 rrcurveto
          457 457 rlineto
          18 19 9 22 0 24 0 24 -9 22 -18 18 rrcurveto
          -457 458 rlineto
          -19 18 -22 8 -22 0 -49 0 -41 -40 0 -50 0 -22 9 -25 17 -17 rrcurveto
          55 -54 rlineto
          7 -7 1 -6 0 -8 0 -15 -13 -13 -15 0 rrcurveto
          -1294 hlineto
          -48 0 -42 -39 0 -51 0 -50 43 -40 47 0 rrcurveto
          1343 hlineto
          23 0 25 10 16 16 rrcurveto
          33 33 rlineto
          6 6 7 3 8 0 8 0 8 -3 6 -6 rrcurveto
          149 -149 rlineto
          6 -6 3 -7 0 -8 0 -8 -3 -8 -6 -6 rrcurveto
          -147 -146 rlineto
          -6 -6 -8 -3 -8 0 -8 0 -8 3 -6 6 rrcurveto
          -32 33 rlineto
          -18 18 -23 9 -24 0 rrcurveto
          -1344 hlineto
          -48 0 -42 -39 0 -51 0 -50 43 -40 47 0 rrcurveto
          1296 hlineto
          14 0 15 -14 0 -16 0 -7 -3 -7 -5 -5 rrcurveto
          -58 -58 rlineto
          -17 -18 -9 -21 0 -24 0 -50 41 -40 49 0 rrcurveto
          endchar
        </CharString>
        <CharString name="right_arrow_double_long">
          0 383 1 rmoveto
          22 0 23 9 18 17 rrcurveto
          457 457 rlineto
          18 19 9 22 0 24 0 24 -9 22 -18 18 rrcurveto
          -457 458 rlineto
          -19 18 -22 8 -22 0 -49 0 -41 -40 0 -50 0 -22 9 -25 17 -17 rrcurveto
          55 -54 rlineto
          7 -7 1 -6 0 -8 0 -15 -13 -13 -15 0 rrcurveto
          -2494 hlineto
          -48 0 -42 -39 0 -51 0 -50 43 -40 47 0 rrcurveto
          2543 hlineto
          23 0 25 10 16 16 rrcurveto
          33 33 rlineto
          6 6 7 3 8 0 8 0 8 -3 6 -6 rrcurveto
          149 -149 rlineto
          6 -6 3 -7 0 -8 0 -8 -3 -8 -6 -6 rrcurveto
          -147 -146 rlineto
          -6 -6 -8 -3 -8 0 -8 0 -8 3 -6 6 rrcurveto
          -32 33 rlineto
          -18 18 -23 9 -24 0 rrcurveto
          -2544 hlineto
          -48 0 -42 -39 0 -51 0 -50 43 -40 47 0 rrcurveto
          2496 hlineto
          14 0 15 -14 0 -16 0 -7 -3 -7 -5 -5 rrcurveto
          -58 -58 rlineto
          -17 -18 -9 -21 0 -24 0 -50 41 -40 49 0 rrcurveto
          endchar
        </CharString>
        <CharString name="right_arrow_single">
          0 383 1 rmoveto
          22 0 21 6 20 19 rrcurveto
          457 457 rlineto
          18 18 9 24 0 23 0 24 -9 21 -18 19 rrcurveto
          -457 459 rlineto
          -18 17 -23 9 -22 0 -47 0 -43 -38 0 -53 0 -23 9 -23 17 -18 rrcurveto
          113 -113 rlineto
          6 -6 3 -8 0 -7 0 -8 -3 -9 -6 -5 rrcurveto
          -114 -114 rlineto
          -18 -18 -35 -14 -25 0 rrcurveto
          -1180 hlineto
          -50 0 -40 -41 0 -49 0 -50 40 -40 50 0 rrcurveto
          1180 hlineto
          25 0 36 -15 17 -17 rrcurveto
          114 -117 rlineto
          7 -8 2 -6 0 -8 0 -8 -3 -9 -6 -5 rrcurveto
          -113 -113 rlineto
          -18 -19 -8 -22 0 -22 0 -51 39 -39 51 0 rrcurveto
          198 427 rmoveto
          -8 0 -7 2 -7 7 rrcurveto
          -89 88 rlineto
          -7 6 -2 8 0 8 0 8 3 7 6 6 rrcurveto
          89 89 rlineto
          6 6 8 3 8 0 8 0 8 -3 6 -6 rrcurveto
          88 -89 rlineto
          7 -7 3 -6 0 -8 0 -8 -3 -8 -7 -6 rrcurveto
          -88 -88 rlineto
          -6 -6 -8 -3 -8 0 rrcurveto
          endchar
        </CharString>
        <CharString name="right_arrow_single_long">
          0 383 1 rmoveto
          22 0 21 6 20 19 rrcurveto
          457 457 rlineto
          18 18 9 24 0 23 0 24 -9 21 -18 19 rrcurveto
          -457 459 rlineto
          -18 17 -23 9 -22 0 -47 0 -43 -38 0 -53 0 -23 9 -23 17 -18 rrcurveto
          113 -113 rlineto
          6 -6 3 -8 0 -7 0 -8 -3 -9 -6 -5 rrcurveto
          -114 -114 rlineto
          -18 -18 -35 -14 -25 0 rrcurveto
          -2380 hlineto
          -50 0 -40 -41 0 -49 0 -50 40 -40 50 0 rrcurveto
          2380 hlineto
          25 0 36 -15 17 -17 rrcurveto
          114 -117 rlineto
          7 -8 2 -6 0 -8 0 -8 -3 -9 -6 -5 rrcurveto
          -113 -113 rlineto
          -18 -19 -8 -22 0 -22 0 -51 39 -39 51 0 rrcurveto
          198 427 rmoveto
          -8 0 -7 2 -7 7 rrcurveto
          -89 88 rlineto
          -7 6 -2 8 0 8 0 8 3 7 6 6 rrcurveto
          89 89 rlineto
          6 6 8 3 8 0 8 0 8 -3 6 -6 rrcurveto
          88 -89 rlineto
          7 -7 3 -6 0 -8 0 -8 -3 -8 -7 -6 rrcurveto
          -88 -88 rlineto
          -6 -6 -8 -3 -8 0 rrcurveto
          endchar
        </CharString>
        <CharString name="s">
          0 603 -30 rmoveto
          118 0 99 29 80 57 80 57 40 78 0 100 0 87 -34 69 -67 51 -67 50 -100 39 -133 27 -86 19 -61 22 -34 24 -34 24 -17 29 0 35 0 36 19 30 37 24 37 24 52 12 65 0 rrcurveto
          55 0 45 -11 37 -22 36 -22 25 -26 13 -31 18 -42 28 -20 40 0 27 0 23 10 19 21 19 21 9 25 0 28 0 55 -32 54 -66 54 -76 62 -98 31 -122 0 -116 0 -96 -31 -76 -61 rrcurveto
          -75 -61 -38 -75 0 -89 0 -172 132 -112 263 -52 157 -27 78 -49 0 -72 0 -32 -18 -29 -37 -25 -37 -25 -56 -12 -75 0 -126 0 -81 40 -36 81 -19 42 -31 20 -44 0 -27 0 -21 -9 -16 -18 rrcurveto
          -15 -18 -8 -23 0 -28 0 -19 4 -18 8 -18 31 -65 50 -52 69 -40 68 -40 88 -21 106 0 rrcurveto
          endchar
        </CharString>
        <CharString name="section">
          0 551 -296 rmoveto
          142 0 111 27 78 55 78 55 39 82 0 108 0 158 -114 114 -229 70 -94 28 -76 32 -58 34 -58 34 -28 52 0 71 0 61 18 49 36 36 -39 9 -45 28 -50 46 -13 -13 -15 -19 -17 -25 rrcurveto
          -17 -26 -14 -28 -11 -33 -12 -32 -5 -35 0 -37 0 -107 36 -83 74 -59 55 -44 81 -40 108 -37 105 -30 76 -32 45 -35 41 -28 21 -39 0 -52 0 -99 -82 -52 -165 -4 -108 0 -74 10 -42 20 rrcurveto
          -19 10 -21 5 -21 0 -55 0 -28 -29 0 -56 0 -80 122 -40 244 0 rrcurveto
          387 641 rmoveto
          69 78 35 80 0 82 0 106 -39 83 -77 60 -47 43 -92 43 -135 45 -81 26 -58 27 -35 28 -35 28 -18 38 0 49 0 49 20 36 41 23 40 23 49 12 58 0 85 0 78 -12 70 -23 rrcurveto
          8 -2 9 -2 8 0 50 0 28 29 6 56 rrcurveto
          6 vlineto
          0 16 -6 16 -11 15 -12 15 -15 9 -18 5 -98 23 -93 11 -87 0 -130 0 -100 -28 -69 -58 -69 -58 -35 -78 0 -99 0 -72 25 -64 51 -56 rrcurveto
          25 -27 rlineto
          31 -33 52 -28 71 -25 rrcurveto
          98 -37 rlineto
          77 -27 64 -29 53 -32 52 -31 26 -49 0 -66 0 -60 -19 -49 -37 -38 57 -18 46 -26 34 -33 rrcurveto
          endchar
        </CharString>
        <CharString name="semicolon">
          0 371 -413 rmoveto
          147 15 113 58 79 101 57 74 29 84 0 93 0 106 -27 79 -53 54 -33 33 -38 16 -44 0 -59 0 -43 -21 -26 -44 -17 -24 -9 -27 0 -30 0 -47 19 -43 38 -37 38 -38 20 -38 0 -39 rrcurveto
          0 -36 -18 -32 -36 -28 -36 -29 -48 -18 -62 -8 -56 -6 -28 -32 0 -58 6 -52 31 -26 56 0 rrcurveto
          234 1164 rmoveto
          43 0 37 16 31 32 31 32 16 39 0 45 0 46 -16 39 -31 32 -31 32 -37 16 -43 0 -46 0 -39 -16 -32 -32 -31 -32 -16 -39 0 -46 0 -45 16 -39 31 -32 32 -32 39 -16 46 0 rrcurveto
          endchar
        </CharString>
        <CharString name="seven">
          0 453 -30 rmoveto
          37 0 34 23 14 33 rrcurveto
          521 1178 rlineto
          8 17 2 21 0 17 0 83 -66 68 -82 0 rrcurveto
          -698 hlineto
          -48 0 -43 -41 0 -49 0 -50 43 -42 48 0 rrcurveto
          598 hlineto
          14 0 8 -1 7 -6 5 -5 2 -6 0 -7 0 -3 -1 -2 0 -1 rrcurveto
          -493 -1102 rlineto
          -4 -8 -2 -15 0 -11 0 -54 40 -37 56 0 rrcurveto
          endchar
        </CharString>
        <CharString name="six">
          0 600 -30 rmoveto
          290 0 150 225 0 284 0 286 -177 125 -223 0 -96 0 -94 -34 -56 -39 -4 -3 -4 -1 -5 0 -11 0 -7 6 0 19 rrcurveto
          3 vlineto
          1 28 10 59 38 78 38 76 71 83 99 46 69 32 73 3 113 6 47 2 39 39 0 49 0 46 -39 42 -47 0 rrcurveto
          -39 hlineto
          -455 0 -220 -322 0 -470 0 -471 159 -197 280 0 rrcurveto
          180 vmoveto
          -170 0 -84 170 0 140 0 35 4 70 29 41 65 90 101 14 81 0 153 0 81 -93 0 -161 0 -162 -90 -144 -170 0 rrcurveto
          endchar
        </CharString>
        <CharString name="slash">
          0 240 -200 rmoveto
          33 0 35 21 14 33 rrcurveto
          720 1623 rlineto
          5 11 3 14 0 12 0 33 -21 34 -32 14 -12 5 -13 3 -12 0 -34 0 -34 -21 -14 -32 rrcurveto
          -720 -1623 rlineto
          -5 -12 -3 -13 0 -11 0 -34 21 -34 33 -15 11 -5 13 -3 12 0 rrcurveto
          endchar
        </CharString>
        <CharString name="slash_asterisk">
          0 -760 -200 rmoveto
          33 0 35 21 14 33 rrcurveto
          720 1623 rlineto
          5 11 3 14 0 12 0 33 -21 34 -32 14 -12 5 -13 3 -12 0 -34 0 -34 -21 -14 -32 rrcurveto
          -720 -1623 rlineto
          -5 -12 -3 -13 0 -11 0 -34 21 -34 33 -15 11 -5 13 -3 12 0 rrcurveto
          1360 781 rmoveto
          49 0 41 41 0 49 rrcurveto
          222 vlineto
          192 -111 rlineto
          14 -8 15 -3 15 0 51 0 40 41 0 48 0 31 -16 31 -29 16 rrcurveto
          -192 112 192 111 rlineto
          29 16 16 31 0 31 0 48 -40 41 -51 0 -15 0 -15 -3 -14 -8 rrcurveto
          -192 -111 rlineto
          222 vlineto
          0 49 -41 41 -49 0 -50 0 -40 -41 0 -49 rrcurveto
          -222 vlineto
          -193 111 rlineto
          -14 8 -15 3 -15 0 -49 0 -42 -41 0 -48 0 -31 16 -31 29 -16 rrcurveto
          193 -111 -193 -111 rlineto
          -29 -17 -16 -31 0 -31 0 -48 42 -41 49 0 15 0 15 3 14 8 rrcurveto
          193 111 rlineto
          -222 vlineto
          0 -49 40 -41 50 0 rrcurveto
          endchar
        </CharString>
        <CharString name="slash_asterisk_asterisk">
          0 400 581 rmoveto
          49 0 41 41 0 49 rrcurveto
          222 vlineto
          192 -111 rlineto
          14 -8 15 -3 15 0 51 0 40 41 0 48 0 31 -16 31 -29 16 rrcurveto
          -192 112 192 111 rlineto
          29 16 16 31 0 31 0 48 -40 41 -51 0 -15 0 -15 -3 -14 -8 rrcurveto
          -192 -111 rlineto
          222 vlineto
          0 49 -41 41 -49 0 -50 0 -40 -41 0 -49 rrcurveto
          -222 vlineto
          -193 111 rlineto
          -14 8 -15 3 -15 0 -49 0 -42 -41 0 -48 0 -31 16 -31 29 -16 rrcurveto
          193 -111 -193 -111 rlineto
          -29 -17 -16 -31 0 -31 0 -48 42 -41 49 0 15 0 15 3 14 8 rrcurveto
          193 111 rlineto
          -222 vlineto
          0 -49 40 -41 50 0 rrcurveto
          -1000 hmoveto
          49 0 41 41 0 49 rrcurveto
          222 vlineto
          192 -111 rlineto
          14 -8 15 -3 15 0 51 0 40 41 0 48 0 31 -16 31 -29 16 rrcurveto
          -192 112 192 111 rlineto
          29 16 16 31 0 31 0 48 -40 41 -51 0 -15 0 -15 -3 -14 -8 rrcurveto
          -192 -111 rlineto
          222 vlineto
          0 49 -41 41 -49 0 -50 0 -40 -41 0 -49 rrcurveto
          -222 vlineto
          -193 111 rlineto
          -14 8 -15 3 -15 0 -49 0 -42 -41 0 -48 0 -31 16 -31 29 -16 rrcurveto
          193 -111 -193 -111 rlineto
          -29 -17 -16 -31 0 -31 0 -48 42 -41 49 0 15 0 15 3 14 8 rrcurveto
          193 111 rlineto
          -222 vlineto
          0 -49 40 -41 50 0 rrcurveto
          -1360 -781 rmoveto
          33 0 35 21 14 33 rrcurveto
          720 1623 rlineto
          5 11 3 14 0 12 0 33 -21 34 -32 14 -12 5 -13 3 -12 0 -34 0 -34 -21 -14 -32 rrcurveto
          -720 -1623 rlineto
          -5 -12 -3 -13 0 -11 0 -34 21 -34 33 -15 11 -5 13 -3 12 0 rrcurveto
          endchar
        </CharString>
        <CharString name="slash_greater">
          0 -59 1171 rmoveto
          136 306 rlineto
          5 13 3 12 0 12 0 17 -5 16 -9 15 -9 15 -13 11 -17 7 -13 5 -12 3 -12 0 -17 0 -16 -5 -15 -9 -15 -9 -12 -13 -7 -17 rrcurveto
          -788 -1776 rlineto
          -5 -13 -3 -12 0 -11 0 -17 5 -17 10 -15 9 -15 13 -12 17 -7 13 -5 12 -3 11 0 17 0 16 5 15 10 15 9 12 13 7 17 rrcurveto
          579 1305 822 -432 rlineto
          11 -7 6 -8 0 -9 0 -11 -5 -8 -11 -7 rrcurveto
          -475 -254 rlineto
          -35 -21 -17 -28 0 -34 0 -24 9 -21 19 -18 18 -18 21 -9 24 0 13 0 13 3 13 6 rrcurveto
          692 363 rlineto
          33 19 17 27 0 35 0 17 -4 15 -9 15 -9 15 -12 11 -16 8 rrcurveto
          endchar
        </CharString>
        <CharString name="slash_slash">
          0 90 -200 rmoveto
          33 0 35 21 14 33 rrcurveto
          720 1623 rlineto
          5 11 3 14 0 12 0 33 -21 34 -32 14 -12 5 -13 3 -12 0 -34 0 -34 -21 -14 -32 rrcurveto
          -720 -1623 rlineto
          -5 -12 -3 -13 0 -11 0 -34 21 -34 33 -15 11 -5 13 -3 12 0 rrcurveto
          -900 hmoveto
          33 0 35 21 14 33 rrcurveto
          720 1623 rlineto
          5 11 3 14 0 12 0 33 -21 34 -32 14 -12 5 -13 3 -12 0 -34 0 -34 -21 -14 -32 rrcurveto
          -720 -1623 rlineto
          -5 -12 -3 -13 0 -11 0 -34 21 -34 33 -15 11 -5 13 -3 12 0 rrcurveto
          endchar
        </CharString>
        <CharString name="slash_slash_slash">
          0 -60 -200 rmoveto
          33 0 35 21 14 33 rrcurveto
          720 1623 rlineto
          5 11 3 14 0 12 0 33 -21 34 -32 14 -12 5 -13 3 -12 0 -34 0 -34 -21 -14 -32 rrcurveto
          -720 -1623 rlineto
          -5 -12 -3 -13 0 -11 0 -34 21 -34 33 -15 11 -5 13 -3 12 0 rrcurveto
          -900 hmoveto
          33 0 35 21 14 33 rrcurveto
          720 1623 rlineto
          5 11 3 14 0 12 0 33 -21 34 -32 14 -12 5 -13 3 -12 0 -34 0 -34 -21 -14 -32 rrcurveto
          -720 -1623 rlineto
          -5 -12 -3 -13 0 -11 0 -34 21 -34 33 -15 11 -5 13 -3 12 0 rrcurveto
          -900 hmoveto
          33 0 35 21 14 33 rrcurveto
          720 1623 rlineto
          5 11 3 14 0 12 0 33 -21 34 -32 14 -12 5 -13 3 -12 0 -34 0 -34 -21 -14 -32 rrcurveto
          -720 -1623 rlineto
          -5 -12 -3 -13 0 -11 0 -34 21 -34 33 -15 11 -5 13 -3 12 0 rrcurveto
          endchar
        </CharString>
        <CharString name="space">
          0 endchar
        </CharString>
        <CharString name="t">
          0 862 -30 rmoveto
          150 0 76 36 0 72 0 24 -8 20 -16 15 -15 16 -20 7 -26 0 -10 0 -13 -2 -14 -5 -14 -4 -19 -3 -25 0 -209 4 -106 92 -4 179 rrcurveto
          398 vlineto
          0 31 16 15 32 0 rrcurveto
          339 hlineto
          27 0 22 8 17 18 17 17 9 21 0 26 0 26 -9 23 -18 18 -18 18 -22 9 -25 0 rrcurveto
          -339 hlineto
          -32 0 -16 14 0 30 rrcurveto
          216 vlineto
          0 29 -9 23 -18 16 -18 16 -21 8 -24 0 -24 0 -21 -9 -18 -17 -18 -17 -9 -22 0 -27 rrcurveto
          -216 vlineto
          0 -30 -15 -14 -29 0 rrcurveto
          -161 hlineto
          -25 0 -22 -9 -18 -18 -18 -18 -9 -23 0 -26 0 -26 9 -21 18 -17 18 -18 22 -8 25 0 rrcurveto
          161 hlineto
          29 0 15 -15 0 -31 rrcurveto
          -440 vlineto
          5 -273 151 -136 297 0 rrcurveto
          endchar
        </CharString>
        <CharString name="tag_todo">
          0 171 -270 rmoveto
          178 98 126 102 77 108 133 191 66 217 0 243 rrcurveto
          46 vlineto
          0 228 -66 209 -133 191 -99 141 -127 103 -155 65 rrcurveto
          -5487 -2 rlineto
          -26 0 -22 -9 -18 -18 -19 -19 -9 -22 0 -25 rrcurveto
          -1754 vlineto
          0 -25 9 -22 19 -18 18 -19 22 -9 26 0 rrcurveto
          1036 215 rmoveto
          -60 0 -55 56 0 59 rrcurveto
          1117 vlineto
          0 16 -2 2 -16 0 rrcurveto
          -247 hlineto
          -59 0 -56 54 0 60 0 60 55 56 60 0 rrcurveto
          760 hlineto
          60 0 55 -56 0 -60 0 -60 -55 -54 -60 0 rrcurveto
          -247 hlineto
          -14 0 -4 -4 0 -14 rrcurveto
          -1117 vlineto
          0 -59 -55 -56 -60 0 rrcurveto
          1170 hmoveto
          -415 0 -70 452 0 303 0 304 75 451 411 0 411 0 73 -450 0 -305 0 -305 -70 -450 -415 0 rrcurveto
          230 vmoveto
          210 0 45 300 0 225 0 226 -45 299 -210 0 -210 0 -45 -292 0 -233 0 -232 45 -293 210 0 rrcurveto
          2540 -230 rmoveto
          -415 0 -70 452 0 303 0 304 75 451 411 0 411 0 73 -450 0 -305 0 -305 -70 -450 -415 0 rrcurveto
          230 vmoveto
          210 0 45 300 0 225 0 226 -45 299 -210 0 -210 0 -45 -292 0 -233 0 -232 45 -293 210 0 rrcurveto
          -1425 30 rmoveto
          303 0 116 121 0 326 0 215 -8 158 -79 79 -90 90 -120 0 -154 0 -14 0 -4 -4 0 -13 rrcurveto
          -954 vlineto
          0 -14 4 -4 14 0 rrcurveto
          32 -230 rmoveto
          -161 hlineto
          -62 0 -57 57 0 62 rrcurveto
          1212 vlineto
          0 62 57 57 62 0 rrcurveto
          200 hlineto
          401 0 209 -196 0 -441 rrcurveto
          -136 vlineto
          0 -482 -209 -195 -440 0 rrcurveto
          endchar
        </CharString>
        <CharString name="three">
          0 542 -30 rmoveto
          152 0 117 41 81 83 85 92 42 115 0 139 0 81 -32 71 -63 60 -32 30 -36 23 -40 18 -27 12 -13 12 0 14 0 12 10 13 19 13 99 66 50 96 0 126 0 102 -39 82 -78 64 rrcurveto
          -78 63 -111 32 -144 0 -201 0 -101 -39 0 -78 0 -63 31 -32 61 0 9 0 11 3 12 5 37 16 55 8 72 0 176 0 88 -64 0 -128 0 -69 -27 -55 -55 -43 -62 -51 -92 -25 -124 0 rrcurveto
          -20 0 -17 -7 -15 -14 -15 -14 -7 -20 0 -27 0 -25 7 -19 15 -15 15 -15 17 -7 20 0 289 -7 145 -73 0 -142 -4 -184 -98 -93 -191 -3 -120 0 -77 6 -35 11 -18 5 -19 3 -21 0 rrcurveto
          -7 0 -10 -2 -15 -5 -14 -5 -13 -9 -11 -14 -12 -14 -6 -21 0 -28 0 -23 8 -19 16 -16 34 -33 120 -16 207 0 rrcurveto
          endchar
        </CharString>
        <CharString name="two">
          0 967 hmoveto
          48 0 44 42 0 48 0 48 -41 42 -49 0 rrcurveto
          -523 1 rlineto
          -12 0 -6 8 0 11 0 5 1 4 4 4 rrcurveto
          341 330 rlineto
          158 154 78 115 0 188 0 280 -198 150 -241 0 -136 0 -115 -45 -106 -90 -15 -14 -11 -26 0 -28 0 -66 37 -32 52 0 17 0 12 7 16 13 79 64 76 34 86 0 159 0 110 -108 0 -147 rrcurveto
          0 -79 -23 -78 -63 -62 rrcurveto
          -564 -558 rlineto
          -23 -24 -11 -30 0 -32 0 -71 60 -58 70 0 rrcurveto
          endchar
        </CharString>
        <CharString name="u">
          0 1036 66 rmoveto
          920 vlineto
          0 29 -9 23 -17 17 -17 17 -22 8 -27 0 -29 0 -22 -8 -15 -17 -15 -18 -8 -22 0 -29 rrcurveto
          -547 vlineto
          0 -89 -36 -70 -73 -51 -60 -39 -60 -20 -61 -1 -145 0 -74 82 -3 166 rrcurveto
          569 vlineto
          0 29 -8 23 -17 17 -17 17 -22 8 -28 0 -28 0 -22 -8 -15 -17 -15 -18 -7 -22 0 -29 rrcurveto
          -580 vlineto
          0 -157 32 -112 63 -68 59 -65 94 -33 128 0 97 1 93 46 87 92 8 8 7 4 5 0 10 0 4 -8 0 -16 rrcurveto
          -32 vlineto
          0 -27 10 -23 18 -18 18 -18 22 -10 25 0 24 0 22 10 18 18 18 18 10 23 0 27 rrcurveto
          endchar
        </CharString>
        <CharString name="underscore">
          0 1010 -280 rmoveto
          0 49 -41 41 -49 0 rrcurveto
          -640 hlineto
          -49 0 -41 -41 0 -49 0 -49 41 -41 49 0 rrcurveto
          640 hlineto
          49 0 41 41 0 49 rrcurveto
          endchar
        </CharString>
        <CharString name="v">
          0 605 -30 rmoveto
          61 2 42 30 23 59 220 604 110 304 1 4 1 4 0 4 0 6 0 24 -9 21 -18 19 -18 19 -22 10 -26 0 -20 0 -18 -5 -16 -11 -17 -11 -11 -15 -7 -19 rrcurveto
          -259 -739 rlineto
          -3 -9 -8 -5 -11 0 -11 0 -8 5 -3 9 rrcurveto
          -258 739 rlineto
          -7 19 -11 15 -17 11 -16 11 -18 5 -20 0 -26 0 -22 -10 -18 -19 -18 -19 -9 -21 0 -24 0 -10 2 -11 4 -11 rrcurveto
          327 -894 rlineto
          10 -28 17 -22 24 -17 24 -16 27 -8 32 0 rrcurveto
          endchar
        </CharString>
        <CharString name="w">
          0 838 -30 rmoveto
          37 0 29 12 21 24 21 23 13 29 3 33 56 597 28 301 0 5 0 57 -27 29 -53 0 -60 0 -32 -29 -4 -59 rrcurveto
          -43 -623 rlineto
          -2 -33 -5 -16 -7 0 -8 0 -8 14 -9 29 rrcurveto
          -99 346 rlineto
          -13 48 -31 24 -47 0 -48 0 -29 -24 -11 -47 rrcurveto
          -81 -338 rlineto
          -8 -29 -7 -14 -8 0 -9 0 -6 16 -3 33 rrcurveto
          -51 615 rlineto
          -6 58 -33 29 -59 0 -58 0 -29 -30 0 -60 0 -7 32 -301 64 -595 4 -34 11 -28 20 -22 20 -22 26 -11 30 0 70 0 43 30 16 60 rrcurveto
          101 390 rlineto
          4 17 4 8 3 0 4 0 4 -8 5 -16 rrcurveto
          103 -389 rlineto
          8 -30 16 -22 24 -16 24 -16 25 -8 25 0 rrcurveto
          endchar
        </CharString>
        <CharString name="x">
          0 945 -30 rmoveto
          23 0 21 9 19 17 19 18 9 21 0 26 0 19 -7 20 -13 19 rrcurveto
          -260 360 rlineto
          -9 12 -4 16 0 22 0 16 4 14 9 12 rrcurveto
          260 358 rlineto
          13 19 7 20 0 22 0 23 -9 22 -19 18 -19 18 -21 9 -23 0 -40 0 -28 -13 -17 -25 rrcurveto
          -230 -344 rlineto
          -8 -10 -10 -6 -13 0 -13 0 -10 6 -7 10 rrcurveto
          -230 344 rlineto
          -16 25 -29 13 -40 0 -23 0 -21 -9 -19 -18 -19 -18 -9 -21 0 -24 0 -21 7 -21 14 -19 rrcurveto
          259 -358 rlineto
          9 -12 4 -16 0 -18 0 -19 -4 -15 -9 -12 rrcurveto
          -260 -360 rlineto
          -13 -19 -7 -20 0 -19 0 -26 9 -21 19 -18 19 -17 21 -9 23 0 39 0 28 13 18 25 rrcurveto
          230 341 rlineto
          10 13 9 7 11 0 11 0 10 -7 10 -13 rrcurveto
          230 -341 rlineto
          17 -25 28 -13 40 0 rrcurveto
          endchar
        </CharString>
        <CharString name="x_center">
          0 915 299 rmoveto
          24 0 20 9 16 16 18 18 8 21 0 25 0 26 -9 21 -17 17 rrcurveto
          -248 248 248 247 rlineto
          17 18 9 21 0 25 0 25 -9 21 -17 18 -18 17 -21 9 -25 0 -25 0 -21 -9 -18 -17 rrcurveto
          -247 -248 -248 248 rlineto
          -17 17 -21 9 -25 0 -25 0 -21 -9 -18 -17 -17 -18 -9 -21 0 -25 0 -25 9 -21 17 -18 rrcurveto
          248 -247 -248 -248 rlineto
          -17 -17 -9 -21 0 -25 0 -25 9 -21 17 -18 18 -17 21 -9 25 0 25 0 21 9 17 17 rrcurveto
          248 248 247 -248 rlineto
          18 -17 21 -9 25 0 rrcurveto
          endchar
        </CharString>
        <CharString name="xml_comment_begin">
          0 -1500 640 rmoveto
          -180 2440 vlineto
          25 0 21 9 18 18 17 17 9 21 0 25 0 25 -9 21 -17 18 -18 17 -21 9 -25 0 rrcurveto
          -3040 -180 rmoveto
          180 -540 vlineto
          -13 0 -13 3 -15 7 -15 6 -13 7 -9 9 rrcurveto
          -114 114 rlineto
          -6 7 -3 7 0 8 0 7 3 7 6 7 rrcurveto
          113 113 rlineto
          17 20 9 21 0 23 0 27 -9 22 -18 17 -19 17 -21 8 -23 0 -22 0 -21 -9 -20 -17 rrcurveto
          -457 -459 rlineto
          -18 -19 -9 -21 0 -24 0 -23 9 -21 18 -21 rrcurveto
          457 -457 rlineto
          20 -17 21 -8 22 0 25 0 22 9 17 17 17 17 9 22 0 25 0 22 -9 21 -17 20 rrcurveto
          -113 113 rlineto
          -6 7 -3 7 0 8 0 8 3 7 6 7 rrcurveto
          113 117 rlineto
          9 9 13 7 15 7 15 6 14 3 12 0 rrcurveto
          -340 -32 rmoveto
          -8 0 -7 3 -7 6 rrcurveto
          -88 88 rlineto
          -7 7 -3 7 0 8 0 8 3 7 7 6 rrcurveto
          88 89 rlineto
          7 6 7 3 8 0 8 0 7 -3 7 -6 rrcurveto
          89 -89 rlineto
          6 -6 3 -7 0 -8 0 -8 -3 -7 -6 -7 rrcurveto
          -89 -88 rlineto
          -7 -6 -7 -3 -8 0 rrcurveto
          1185 -458 rmoveto
          43 0 38 16 31 33 31 32 15 38 0 45 0 46 -15 39 -31 33 -31 32 -38 16 -43 0 -47 0 -39 -16 -31 -32 -31 -33 -16 -39 0 -46 0 -45 16 -38 31 -32 31 -33 39 -16 47 0 rrcurveto
          -4 499 rmoveto
          21 0 19 8 16 15 16 15 9 19 1 23 rrcurveto
          25 805 rlineto
          0 29 -11 25 -21 21 -21 21 -25 11 -29 0 -29 0 -25 -11 -21 -21 -21 -22 -11 -25 0 -29 rrcurveto
          25 -804 rlineto
          1 -23 9 -19 16 -15 16 -15 19 -8 21 0 rrcurveto
          endchar
        </CharString>
        <CharString name="xml_comment_empty">
          0 -2981 428 rmoveto
          -8 0 -7 3 -7 6 rrcurveto
          -88 88 rlineto
          -7 7 -3 7 0 8 0 8 3 7 7 6 rrcurveto
          88 89 rlineto
          7 6 7 3 8 0 8 0 7 -3 7 -6 rrcurveto
          89 -89 rlineto
          6 -6 3 -7 0 -8 0 -8 -3 -7 -6 -7 rrcurveto
          -89 -88 rlineto
          -7 -6 -7 -3 -8 0 rrcurveto
          4381 32 rmoveto
          -5 0 -11 7 -17 15 -18 14 -9 23 0 31 0 31 9 23 18 15 17 14 11 7 5 0 rrcurveto
          -2900 -180 hlineto
          -300 9 rmoveto
          21 0 19 8 16 15 16 15 9 19 1 23 rrcurveto
          25 805 rlineto
          0 29 -11 25 -21 21 -21 21 -25 11 -29 0 -29 0 -25 -11 -21 -21 -21 -22 -11 -25 0 -29 rrcurveto
          25 -804 rlineto
          1 -23 9 -19 16 -15 16 -15 19 -8 21 0 rrcurveto
          4 -499 rmoveto
          43 0 38 16 31 33 31 32 15 38 0 45 0 46 -15 39 -31 33 -31 32 -38 16 -43 0 -47 0 -39 -16 -31 -32 -31 -33 -16 -39 0 -46 0 -45 16 -38 31 -32 31 -33 39 -16 47 0 rrcurveto
          -304 490 rmoveto
          180 -540 vlineto
          -13 0 -13 3 -15 7 -15 6 -13 7 -9 9 rrcurveto
          -114 114 rlineto
          -6 7 -3 7 0 8 0 7 3 7 6 7 rrcurveto
          113 113 rlineto
          17 20 9 21 0 23 0 27 -9 22 -18 17 -19 17 -21 8 -23 0 -22 0 -21 -9 -20 -17 rrcurveto
          -457 -459 rlineto
          -18 -19 -9 -21 0 -24 0 -23 9 -21 18 -21 rrcurveto
          457 -457 rlineto
          20 -17 21 -8 22 0 25 0 22 9 17 17 17 17 9 22 0 25 0 22 -9 21 -17 20 rrcurveto
          -113 113 rlineto
          -6 7 -3 7 0 8 0 8 3 7 6 7 rrcurveto
          113 117 rlineto
          9 9 13 7 15 7 15 6 14 3 12 0 rrcurveto
          endchar
        </CharString>
        <CharString name="y">
          0 223 -480 rmoveto
          118 0 101 39 85 78 69 65 64 120 59 175 226 651 113 329 0 10 0 24 -9 21 -18 19 -18 20 -22 9 -26 0 -43 0 -30 -20 -16 -41 rrcurveto
          -254 -718 rlineto
          -3 -9 -8 -5 -11 0 -11 0 -7 5 -3 9 rrcurveto
          -254 718 rlineto
          -16 41 -29 20 -44 0 -25 0 -22 -9 -19 -20 -18 -19 -9 -21 0 -24 0 -10 118 -330 235 -650 4 -10 2 -13 0 -15 0 -49 -28 -60 -56 -71 -49 -60 -60 -30 -71 0 -70 0 -35 -29 0 -58 rrcurveto
          0 -55 30 -27 60 0 rrcurveto
          endchar
        </CharString>
        <CharString name="z">
          0 949 hmoveto
          49 0 41 41 0 49 0 50 -41 40 -49 0 rrcurveto
          -454 hlineto
          -26 0 -17 20 0 23 0 10 3 10 7 8 rrcurveto
          545 582 rlineto
          22 24 10 30 0 31 0 71 -58 60 -71 0 rrcurveto
          -659 hlineto
          -48 0 -42 -40 0 -50 0 -50 42 -40 48 0 rrcurveto
          453 hlineto
          26 0 17 -21 0 -23 0 -9 -3 -11 -7 -7 rrcurveto
          -545 -584 rlineto
          -19 -21 -12 -32 0 -32 0 -71 59 -58 71 0 rrcurveto
          endchar
        </CharString>
        <CharString name="zero">
          0 864 830 rmoveto
          4 -45 2 -43 0 -42 0 -45 -2 -48 -5 -51 -5 -51 -8 -49 -11 -48 -12 -49 -16 -43 -21 -39 -21 -39 -26 -30 -31 -23 -31 -23 -37 -12 -44 0 -55 0 -44 17 -35 35 -35 34 -28 44 -20 55 rrcurveto
          -4 10 rlineto
          445 699 rmoveto
          -487 -487 rlineto
          -5 43 -2 48 0 52 0 58 4 62 8 65 7 65 14 60 20 55 20 55 28 44 35 35 35 34 44 17 55 0 44 0 37 -11 31 -23 31 -23 25 -30 21 -39 15 -27 11 -26 9 -27 rrcurveto
          -224 -1074 rmoveto
          77 0 66 16 53 31 53 31 43 41 33 52 33 51 26 58 19 63 18 63 12 66 7 67 7 67 3 64 0 60 0 61 -3 64 -7 67 -7 67 -13 65 -18 63 -19 63 -26 58 -33 51 rrcurveto
          -33 51 -43 42 -53 31 -53 31 -64 16 -77 0 -76 0 -64 -16 -53 -31 -53 -31 -44 -42 -33 -51 -34 -52 -26 -58 -19 -63 -19 -63 -12 -65 -7 -67 -7 -67 -4 -63 0 -61 0 -61 3 -63 7 -67 rrcurveto
          7 -67 12 -65 19 -63 18 -63 26 -58 34 -51 33 -52 44 -42 53 -31 53 -31 64 -16 77 0 rrcurveto
          endchar
        </CharString>
</ttFont>
